<svg id="TakeOut" xmlns="http://www.w3.org/2000/svg" width="36.156" height="40" viewBox="0 0 36.156 40">
  <path id="パス_15" data-name="パス 15" d="M12.5,19.651h1.281L13.069,17.8Z" transform="translate(2.02 6.115)" fill="#ba9a66"/>
  <path id="パス_16" data-name="パス 16" d="M11.481,23.3c-.854,0-1.281.569-1.281,1.423a1.314,1.314,0,0,0,1.281,1.423c.854,0,1.281-.569,1.281-1.423A1.178,1.178,0,0,0,11.481,23.3Z" transform="translate(1.046 8.444)" fill="#ba9a66"/>
  <path id="パス_17" data-name="パス 17" d="M37.318,19.79a.973.973,0,0,0-1-1H29.346l-2.278-5.836h0L28.207,10.4a4.152,4.152,0,0,0,.142-2.278L25.93,1H14.684l-1,7.544V9.826l.285,1.566-.142.712h0L11.7,18.794H4.578a.973.973,0,0,0-1,1L2.3,39.861a1.087,1.087,0,0,0,.285.712A.783.783,0,0,0,3.3,41H37.46a.973.973,0,0,0,1-1ZM15.254,1.712h9.964L27.5,8.26a3.47,3.47,0,0,1,0,1.708l-.712,1.851-.712-1.851V7.975a.427.427,0,0,0-.854,0v4.7a1.47,1.47,0,0,1-1.566,1.566h-.427v-3.7a.427.427,0,1,0-.854,0V14.1l-2.135-.285V10.4a.427.427,0,1,0-.854,0v3.416l-1.851-.285V10.4a.427.427,0,1,0-.854,0v2.989H16.25a2.006,2.006,0,0,1-1.566-1.423v-.569L14.4,9.683V8.544Zm-.142,12.242a2.023,2.023,0,0,0,.854.285l7.4.854h.285a2.141,2.141,0,0,0,1.566-.569l.142-.142,1.708,4.555H13.546ZM10.556,24.915V23.776h3.986v1.139H13.119v3.843H11.837V24.915Zm4.27,11.673a2.466,2.466,0,0,1-2.562-2.562,2.552,2.552,0,0,1,2.562-2.562,2.466,2.466,0,0,1,2.562,2.562A2.324,2.324,0,0,1,14.827,36.587Zm3.7-8.683H16.535l-.285.712H14.827l1.851-4.84h1.566l1.851,4.84H18.67Zm4.7,6.69a1.992,1.992,0,0,1-2.278,2.135c-1.566,0-2.278-.854-2.278-1.993V31.89h1.281v2.847a1,1,0,0,0,1.993,0V31.89h1.281Zm-.569-7.829-.285.427v1.423H21.09v-4.84h1.281v1.993l1.566-1.993H25.5l-1.851,2.278,1.993,2.562H24.079Zm5.836,5.979H27.069v3.843H25.788V32.744H24.364V31.6H28.35v1.139Zm1.566-7.972H27.78v.854h2.278v1H27.78v.854h2.278v1H26.5v-4.7h3.559Z" transform="translate(-2.3 -1)" fill="#ba9a66"/>
</svg>
