<svg id="Facebook" xmlns="http://www.w3.org/2000/svg" width="48" height="48" viewBox="0 0 48 48">
  <rect id="back" width="48" height="48" fill="none"/>
  <path id="Facebook-2" d="M44.095,18.7H20.185A1.485,1.485,0,0,0,18.7,20.185v23.91a1.485,1.485,0,0,0,1.485,1.485h12.87V35.172h-3.5v-4.06h3.5V28.125c0-3.473,2.123-5.365,5.218-5.365a30.574,30.574,0,0,1,3.134.158v3.631H39.255c-1.694,0-2.01.8-2.01,1.976v2.586h4.021l-.525,4.06h-3.5V45.58h6.85a1.485,1.485,0,0,0,1.485-1.485V20.185A1.485,1.485,0,0,0,44.095,18.7Z" transform="translate(-8.14 -8.14)" fill="#fffaed"/>
</svg>
