<svg id="Instagram" xmlns="http://www.w3.org/2000/svg" width="48" height="48" viewBox="0 0 48 48">
  <rect id="back" width="48" height="48" fill="none"/>
  <path id="パス_11" data-name="パス 11" d="M32.123,21.111c3.586,0,4.015,0,5.432.079a7.239,7.239,0,0,1,2.5.463A4.456,4.456,0,0,1,42.6,24.2a7.24,7.24,0,0,1,.463,2.5c.068,1.417.079,1.847.079,5.432s0,4.015-.079,5.432a7.239,7.239,0,0,1-.463,2.5A4.456,4.456,0,0,1,40.051,42.6a7.24,7.24,0,0,1-2.5.463c-1.417.068-1.841.079-5.432.079s-4.015,0-5.432-.079a7.239,7.239,0,0,1-2.5-.463,4.478,4.478,0,0,1-2.519-2.552,7.24,7.24,0,0,1-.463-2.5c-.1-1.417-.1-1.847-.1-5.432s0-4.015.079-5.432a7.4,7.4,0,0,1,.486-2.5,4.456,4.456,0,0,1,2.519-2.519,7.24,7.24,0,0,1,2.5-.463c1.417-.1,1.847-.1,5.432-.1m0-2.423c-3.648,0-4.105,0-5.54.079a9.792,9.792,0,0,0-3.264.649,6.856,6.856,0,0,0-3.953,3.953,9.9,9.9,0,0,0-.627,3.264c-.062,1.434-.079,1.892-.079,5.54s0,4.105.079,5.54a9.961,9.961,0,0,0,.678,3.213,6.856,6.856,0,0,0,3.953,3.953,9.9,9.9,0,0,0,3.264.627c1.434.062,1.892.079,5.54.079s4.105,0,5.54-.079a9.9,9.9,0,0,0,3.264-.627,6.856,6.856,0,0,0,3.953-3.953,9.9,9.9,0,0,0,.627-3.264c.062-1.434.079-1.892.079-5.54s0-4.105-.079-5.54a9.9,9.9,0,0,0-.627-3.264,6.856,6.856,0,0,0-3.953-3.953,9.9,9.9,0,0,0-3.264-.627c-1.434-.062-1.892-.079-5.54-.079Z" transform="translate(-8.123 -8.123)" fill="#fffaed"/>
  <path id="パス_12" data-name="パス 12" d="M37.181,30.28a6.9,6.9,0,1,0,6.9,6.9,6.9,6.9,0,0,0-6.9-6.9Zm0,11.379a4.478,4.478,0,1,1,4.478-4.478,4.478,4.478,0,0,1-4.478,4.478Z" transform="translate(-13.181 -13.181)" fill="#fffaed"/>
  <circle id="楕円形_1" data-name="楕円形 1" cx="1.615" cy="1.615" r="1.615" transform="translate(29.557 15.213)" fill="#fffaed"/>
</svg>
