<?xml version="1.0" encoding="utf-8"?>
<!-- Generator: Adobe Illustrator 22.1.0, SVG Export Plug-In . SVG Version: 6.00 Build 0)  -->
<svg version="1.1" id="レイヤー_2" xmlns="http://www.w3.org/2000/svg" xmlns:xlink="http://www.w3.org/1999/xlink" x="0px"
	 y="0px" viewBox="0 0 562.1 408" style="enable-background:new 0 0 562.1 408;" xml:space="preserve">
<style type="text/css">
	.st0{fill:#231815;}
</style>
<path class="st0" d="M209.2,154.6c0.4,0.9,1.2,0.8,1.9,0.7c0.3,0,0.7-0.2,0.9,0.2c0.2-0.1,0.4-0.2,0.5-0.3c0.1-0.1,0.1-0.3,0.3-0.4
	c0,0.2,0,0.3,0.1,0.5c0.3,0,0.6,0,0.9,0.1c0.2,0,0.3,0.1,0.5,0.2c0,0,0,0.1,0.1,0.1c0.3,0.1,0.7,0,1,0.2c0.4,0.2,0.6,0.2,1.3-0.2
	c0.1,1,1,0.6,1.5,1c0.2-0.2,0.4-0.3,0.7-0.6c0,1.1,0.7,0.9,1.3,0.7c0,0.2,0.1,0.4,0.1,0.5c0.9,0,1.6,0.3,2.4,0.6
	c0.8,0.2,1.6,0.5,2.5,0.8c0,0.1,0,0.3,0,0.6c0.6,0,1.3-0.3,1.7,0.5c0,0.1,0.2,0,0.3,0.1c0.3,0.1,0.8,0.1,0.8,0.7
	c0,0.1,0.1,0.2,0.2,0.2c0.3,0.2,0.6,0.3,0.9,0.5c0.3,0.2,0.6,0.5,0.9,0.7c0.2,0.1,0.5,0.2,0.8,0.2c0,0.1-0.1,0.3-0.1,0.5
	c0.4,0.3,0.7,0.7,1.2,0.9c0.7,0.3,0.9,0.9,1.3,1.4c0.2,0.2,0.6,0.3,0.9,0.5c-0.3,0.7-0.3,0.8,0.4,1c0.1,0.8,0.3,1.7,0.4,2.5
	c0,0.1,0.2,0.1,0.2,0.1c0.1,0.3,0.1,0.6,0.2,1.1c0.4,0.2,0.2,0.9,0.2,1.3c0.1,0.9-0.1,1.7,0,2.6c0,0.2,0.3,0.5,0.3,0.7
	c0,0.2-0.3,0.5-0.3,0.7c0,0.6,0.2,1.3,0,1.9c-0.1,0.5-0.1,1.2-0.9,1.5c-0.2,0.1-0.4,0.2-0.5,0.4c-0.1,0.2,0,0.4,0,0.8
	c-0.3-0.4-0.4-1.1-0.8-0.4c-0.4-0.1-0.8-0.3-1-0.2c-0.6,0.3-1-0.4-1.5-0.2c-0.1,0-0.2,0.1-0.4,0.1c-0.1-0.2-0.3-0.5-0.7-0.2
	c-0.1,0.1-0.3,0-0.5-0.1c-0.3-0.1-0.6-0.3-0.9-0.5c-0.5-0.2-1-0.4-1.5-0.7c-0.2-0.2-0.2-0.6-0.3-0.9c-0.1-0.1-0.3-0.3-0.4-0.4
	c0.2-0.1,0.4-0.1,0.5-0.2c0.2-0.2,0.2-0.5,0.4-0.8c0.1-0.2,0.1-0.3,0.2-0.5c0.4-0.6,0.4-1.2,0.3-1.8c0-0.1-0.2-0.2-0.4-0.3
	c0.2-0.1,0.3-0.3,0.5-0.4c0.1,0,0.2,0.1,0.3,0.1c0-0.3-0.1-0.5-0.1-0.8c0,0,0-0.1,0-0.1c0.2-0.8-0.2-1.4-0.4-2.1
	c0-0.3,0.1-0.5,0.2-0.8c-0.2,0-0.3,0-0.4,0c0-0.3,0.1-0.6,0.1-0.9c0,0-0.2,0-0.5,0c0-0.3-0.1-0.7-0.1-1.1c-0.1,0-0.3-0.1-0.5-0.1
	c0.1-0.3,0.3-0.5,0.4-0.8c-0.6,0.1-0.8-0.1-0.8-0.7c-0.1-0.5-0.2-0.9-0.5-1.4c-0.1-0.2-0.4-0.4-0.6-0.6c-0.1-0.1-0.2-0.1-0.3-0.2
	c-0.2,0-0.4-0.1-0.5-0.1c0.1-0.2,0.1-0.3,0.2-0.5c-0.2-0.2-0.4-0.5-0.6-0.7c-0.2-0.1-0.5-0.1-0.7-0.3c-0.3-0.1-0.5-0.3-0.8-0.5
	c0-0.1,0-0.1,0.1-0.2c-0.4,0-0.9,0-1.3,0c-0.1-0.3-0.1-0.9-0.7-0.4c-0.1,0.1-0.5-0.1-0.5-0.2c-0.1-0.7-0.6-0.4-1-0.5
	c-0.2-0.1-0.4-0.2-0.5-0.3c-0.8,0-1.6,0-2.4,0c0,0.1-0.1,0.2-0.1,0.3c-0.1,0-0.1,0-0.2-0.1c-0.4-0.3-0.8-0.5-1.3-0.4
	c-0.4,0-1,0.3-1.4-0.2c-0.1,0.1-0.2,0.2-0.3,0.3c-0.1,0.1-0.1,0.2-0.2,0.5c-0.1-0.4-0.2-0.7-0.3-0.9c-0.1,0-0.1,0-0.2,0
	c0,0.1,0,0.2,0,0.2c-1,0.2-2,0-2.9,0.5c0,0-0.1-0.1-0.1-0.1c0-0.1-0.1-0.1-0.1-0.2c-0.1,0-0.1,0-0.1,0c-0.2,0.4-0.4,0.7-0.9,0.3
	c-0.1-0.1-0.5,0.2-0.7,0.3c0,0-0.1-0.2-0.1-0.4c-0.2,0.1-0.4,0.2-0.5,0.3c-0.1,0.3-0.1,0.6-0.2,0.8c-0.2-0.2-0.4-0.4-0.7-0.7
	c-0.1,0.2-0.2,0.6-0.4,0.9c-0.1-0.1-0.2-0.1-0.3-0.2c-0.2-0.3-0.3-0.3-0.5,0c0,0.1-0.3,0.1-0.4,0.2c-0.6,0.1-1.3-0.2-1.6,0.5
	c0,0.1-0.2,0.2-0.3,0.1c-0.5-0.1-0.7,0.2-0.8,0.7c-1-0.4-0.3,0.7-0.7,0.8c-0.2-0.1-0.5-0.2-0.8-0.4c0,0.3,0,0.5,0,0.8
	c-0.4-0.2-0.7-0.3-1.2-0.5c0,0.4,0.1,0.5,0.1,0.7c-0.1,0-0.1,0.1-0.2,0.1c-0.2-0.1-0.4-0.3-0.6-0.2c-0.1,0-0.2,0.3-0.3,0.5
	c0,0-0.1,0.1-0.2,0.1c-0.7,0.1-0.7,0.1-1.1,0.6c-0.2,0-0.4-0.6-0.6,0c0,0.1-0.2,0.2-0.3,0.2c-0.3,0-0.5,0.1-0.7,0.4
	c-0.1,0.2-0.5,0.1-0.7,0.2c-0.3,0.1-0.6,0.3-0.7,0.5c-0.4,0.5-0.3,0.6-0.9,0.4c-0.5,0.8-1.3,1-2.1,1.6c0,0.1,0,0.3-0.1,0.6
	c-0.1,0-0.2-0.1-0.3-0.1c-0.1,0-0.3,0-0.4,0c-0.1,0.4-0.4,0.4-0.7,0.5c-0.4,0.2-0.7,0.6-0.9,0.9c-0.2,0.2-0.2,0.4-0.4,0.8
	c-0.1-0.4-0.2-0.5-0.2-0.7c-0.1,0.1-0.2,0.1-0.2,0.1c-0.2,0.7-0.8,0.9-1.4,1.1c-0.4,0.1-0.9,0.2-0.6,0.9c0,0.1,0,0.3,0,0.5
	c-0.3-0.3-0.5-0.5-0.7-0.7c-0.1,0.3-0.3,0.5-0.4,0.8c-1-0.1-1.2,0.8-1.8,1.4c-0.1,0-0.2-0.1-0.4-0.2c-0.1,0.1-0.2,0.2-0.2,0.3
	c0,0.5-0.5,0.7-0.8,0.7c-0.4,0.1-0.5,0.2-0.6,0.5c0,0.1-0.2,0.2-0.3,0.3c-0.3-0.3-0.5,0.1-0.6,0.2c-0.4,0.3-0.7,0.6-0.9,1
	c-0.2,0.2-0.2,0.6-0.3,0.9c-0.1,0.2-0.1,0.3-0.3,0.5c-0.1-0.2-0.1-0.4-0.2-0.8c-0.1,0.2-0.1,0.4-0.2,0.5c-0.2,0.2-0.4,0.4-0.6,0.6
	c-0.2,0.2-0.6,0.3-0.3,0.8c0.1,0.1,0,0.3-0.2,0.5c-0.1-0.2-0.2-0.3-0.3-0.5c-0.3,0.3-0.6,0.6-0.8,0.9c-0.2,0.2-0.7,0.3-0.3,0.8
	c0,0-0.1,0.3-0.2,0.3c-0.2,0-0.3-0.1-0.4-0.1c-0.1,0.1-0.3,0.2-0.4,0.3c-0.2,0.4-0.5,0.8-0.7,1.2c-0.1,0.3-0.2,0.6-0.7,0.5
	c0,0.2,0,0.5-0.1,0.8c0,0.1-0.2,0.3-0.2,0.4c-0.1-0.1-0.3-0.2-0.3-0.3c-0.4,0.5-0.8,1.1-1.3,1.7c-0.2,0.3-0.4,0.5-0.4,0.9
	c0,0.2-0.1,0.4-0.1,0.5c-0.1,0-0.1,0-0.2,0c0-0.1-0.1-0.2-0.1-0.3c-0.2,0.2-0.5,0.3-0.6,0.5c-0.2,0.5-0.5,1-0.9,1.5
	c-0.1,0.1-0.1,0.3-0.1,0.7c-0.2-0.1-0.3-0.1-0.5-0.2c0-0.1,0.1-0.2,0.1-0.3c-0.1,0.3-0.1,0.7-0.3,0.9c-0.4,0.5-0.6,1-0.6,1.6
	c-0.7,0.1-0.5,0.6-0.5,1c0,0.1-0.1,0.1-0.2,0.2c-0.2,0.2-0.5,0.4-0.6,0.6c-0.2,0.6-0.2,1.2-0.4,1.8c-0.1,0.3-0.2,0.6-0.4,0.9
	c-0.4,0.6-0.5,0.9-0.2,1.5c0,0.1-0.1,0.2-0.2,0.3c-0.2,0.2-0.4,0.3-0.5,0.6c0,0.1,0.2,0.3,0.4,0.5c0,0,0,0.1,0,0.1
	c-0.9,0.1-0.5,0.8-0.6,1.2c-0.1,0.5,0.2,1.1-0.4,1.5c-0.1,0,0,0.2,0,0.3c0.2,0,0.5,0,0.7,0c0,0,0.1,0.1,0.1,0.1
	c-0.7,0.1-0.5,0.6-0.5,1c0,0.6,0.1,1.2,0.1,1.8c0,0.1,0.1,0.1,0.2,0.2c0.2,0.3,0.2,0.5-0.3,0.6c0.2,0.2,0.5,0.4,0.6,0.6
	c0.1,0.1,0,0.3,0,0.4c-0.3,0.3-0.3,0.4,0.2,0.5c0.4,0.1,0.4,0.3,0.2,0.6c-0.1,0.2-0.2,0.4-0.3,0.7c0.3-0.2,0.5-0.3,0.8-0.4
	c0,0.2,0,0.4,0,0.5c0,0.2-0.1,0.4,0,0.5c0.6,0.3,0.3,0.6-0.1,1c0.7,0,0.8,0.3,0.8,0.8c0,0.6,0.4,1,0.8,1.4c0,0,0.3-0.1,0.4-0.1
	c0.1,0,0.2-0.1,0.3-0.1c0,0.1,0.2,0.2,0.1,0.3c-0.2,0.3-0.1,0.5,0.2,0.6c0.1,0,0.1,0.3,0.1,0.4c0.1,0.2,0.2,0.4,0.3,0.5
	c0.1,0.1,0.3-0.1,0.5-0.2c0.2,0,0.3-0.1,0.5-0.1c0,0.6,0.2,0.8,0.7,0.7c0.2,0,0.4,0.1,0.7,0.2c0.3,0,0.4-0.4,0.7-0.5
	c0.3-0.1,0,0.7,0.6,0.4c0.5-0.2,1.1-0.1,1.7-0.1c0.2,0,0.4,0.1,0.7,0.2c0.1-0.2,0.2-0.4,0.2-0.7c0.2,0.2,0.5,0.3,0.5,0.3
	c0.4-0.2,0.6-0.3,0.9-0.4c0.2-0.1,0.4-0.1,0.6-0.3c0.5-0.2,1.1-0.3,1.6-0.5c0,0,0,0,0-0.1c0.4-0.2,0.9-0.5,1.3-0.6
	c0.4-0.1,0.5-0.3,0.5-0.7c0-0.1,0.2-0.3,0.3-0.5c0.1,0.1,0.2,0.3,0.4,0.4c0.2-0.2,0.4-0.5,0.7-0.7c0.1-0.1,0.4,0.2,0.7,0.3
	c-0.1-0.5,0.2-0.6,0.7-0.8c0.5-0.2,1.1-0.2,1.4-0.8c0-0.1,0.3,0,0.4-0.1c0.4-0.1,0.8-0.3,1.2-0.4c0-0.1-0.1-0.3,0-0.4
	c0.1-0.2,0.3-0.5,0.3-0.5c0.8,0.3,1.1-0.6,1.7-0.6c-0.1-0.3-0.1-0.5-0.2-0.8c0.1,0,0.1,0,0.2-0.1c0.1,0.2,0.2,0.3,0.3,0.6
	c0.1-0.1,0.2-0.2,0.2-0.3c0-0.5,0.1-0.9,0.8-0.7c0.2,0,0.6-0.3,0.8-0.5c0.2-0.2,0.3-0.6,0.5-0.9c0.1,0,0.3,0.1,0.5,0.1
	c0.1-0.2,0.1-0.4,0.2-0.6c0.3-0.1,0.8,0.3,0.9-0.3c0,0,0.2,0,0.3-0.1c0.2-0.2,0.5-0.5,0.4-0.6c-0.2-0.4-0.2-0.6,0.2-0.7
	c0.1,0,0.3,0.3,0.5,0.4c0.1-0.1,0.2-0.4,0.3-0.6c0.3-0.3,0.8-0.5,1.1-0.7c0.2-0.1,0.2-0.3,0.3-0.5c0-0.1,0-0.2,0-0.2
	c0-0.2,0.1-0.4,0.1-0.5c-0.3,0.1-0.5,0.1-0.8,0.2c-0.2,0.1-0.4,0.2-0.6,0.3c0-0.4-0.1-0.7-0.1-1.1c0.8-0.1,0.8-0.1,0.7-1
	c0.2-0.1,0.4-0.1,0.6-0.2c0.1,0.4,0.3,0.7,0.5,1.2c0.5-0.3,0.9-0.5,1.3-0.8c0.1,0,0.1,0,0.2,0c0.2-0.1,0.5-0.1,0.7-0.2
	c0.3,0,0.5,0,0.9,0c0.1-0.3,0.2-0.9,0.9-0.5c0-0.7,1.4-0.5,0.9-1.3c0.6-0.3,1.4-0.6,1.5-1c0.2-0.8,0.8-0.9,1.3-1.2
	c0.4-0.2,0.7-0.6,0.6-1.1c0-0.1,0.3-0.3,0.5-0.4c0.2-0.1,0.3-0.2,0.5-0.3c0.2-0.1,0.4-0.2,0.6-0.3c-0.2-0.7-0.1-0.9,0.7-1.1
	c0.1,0,0.3-0.2,0.4-0.3c0.2-0.2,0.4-0.3,0.7-0.6c0-0.2-0.2-0.7,0.5-0.8c0.1,0,0.1-0.6,0.2-1c0.5,0.1,0.8-0.2,0.9-0.8
	c0-0.1,0.3-0.1,0.6-0.2c0-0.1,0-0.4,0-0.7c0,0,0.1,0.1,0.1,0.1c0.3-0.3,0.6-0.5,0.7-0.7c0-0.4-0.1-0.7-0.1-0.9
	c0.8,0.1,1.5-0.4,1.6-1.1c0-0.1,0.1-0.3,0.3-0.4c0.2-0.2,0.5-0.3,0.6-0.3c0-0.4-0.1-0.6-0.1-0.9c0,0,0.1,0,0.1,0
	c0.1,0.1,0.2,0.3,0.5,0.6c0.1-0.5,0.2-0.8,0.3-1.1c0,0,0.1,0.1,0.1,0.1c0.2-0.2,0.3-0.3,0.5-0.5c0.2-0.3,0.3-0.6,0.6,0
	c0.2-0.3,0.4-0.6,0.5-0.8c0.4-0.2,0.9-0.3,1.4-0.5c0.2,0.6,0.7,0.5,1.2,0.3c0.1,0,0.3,0.1,0.5,0.2c0.5-0.1,1-0.3,1.5-0.4
	c0.1,0.4,0.6,0.3,1,0.4c0.4,0.1,0.8,0.1,1.3,0.2c0.2,0.6-0.6,2.1-1.2,2c-0.1,0.3-0.2,0.5-0.3,0.8c-0.1-0.2-0.2-0.4-0.3-0.5
	c-0.5,0.8-0.9,1.5-1.3,2.2c-0.6-0.3-0.5,0.3-0.8,0.6c-0.2,0.2-0.3,0.4-0.5,0.5c0,0.3-0.1,0.7-0.6,0.7c-0.2,0-0.6,0.3-0.3,0.7
	c0.1,0.1,0,0.3,0.1,0.5c-0.1,0-0.1,0-0.2,0c-0.1-0.1-0.2-0.3-0.3-0.5c-0.2,0-0.4,0.1-0.5,0.1c0,0.2,0,0.4,0,0.6
	c-0.2,0.1-0.4,0.1-0.6,0.2c-0.1,0.1-0.2,0.2-0.3,0.4c0.1,0.2,0.2,0.4,0.3,0.6c0,0-0.1,0.1-0.1,0.1c-0.1,0-0.2-0.1-0.4-0.1
	c-0.2,0-0.5-0.2-0.6,0.2c-0.1,0.2-0.4,0.4-0.6,0.6c-0.1,0.1-0.1,0.3-0.1,0.5c0,0.3,0,0.6-0.5,0.4c-0.1,0-0.2,0.2-0.4,0.3
	c-0.2,0.1-0.4,0.2-0.5,0.4c-0.3,0.5-0.5,1-1.2,1.2c-0.1,0-0.2,0.3-0.3,0.5c-0.4,0.4-0.8,0.9-1.2,1.3c-0.1,0.2-0.2,0.3-0.5,0.4
	c-0.2,0-0.4,0.6-0.5,0.9c-0.1,0-0.2-0.1-0.2-0.2c-0.4,0.4-0.8,0.8-1.3,1.1c0,0.1,0,0.3,0,0.5c0,0-0.3,0.1-0.3,0
	c-0.1-0.1-0.1-0.2-0.1-0.4c-0.3,0-0.5-0.1-0.5,0.4c0,0.3-0.3,0.6-0.7,0.6c-0.1,0-0.2,0-0.3,0.1c-0.4,0.4-0.6,1.1-1.3,1.3
	c-0.5,0.1-0.8,0.7-0.9,1.2c0,0.2-0.2,0.3-0.3,0.4c-0.1-0.1-0.3-0.2-0.5-0.4c-0.1,0.3-0.2,0.5-0.3,0.8c0,0.1-0.1,0.1-0.1,0.1
	c-0.5,0.2-0.7,0.6-0.5,1.2c-0.8-0.4-1.2,0.1-1.5,0.5c-0.1,0.1-0.4,0.1-0.4,0.2c0,0.2,0.2,0.3,0.1,0.5c0,0.1-0.2,0.2-0.4,0.2
	c-0.1,0-0.2-0.2-0.2-0.3c-0.6,0.6-1.1,1.1-1.9,1.8c0,0.6-0.9,0.6-1.4,1c0.1,0.1,0.2,0.2,0.3,0.3c-0.1,0-0.2,0.1-0.2,0.1
	c-0.4-0.1-0.7-0.1-0.7,0.4c0,0.1-0.1,0.3-0.3,0.4c-0.1,0-0.3-0.1-0.4-0.2c-0.3,0.2-0.6,0.5-1.1,0.9c0,0.2,0,0.6,0,0.9
	c-0.1,0-0.1,0-0.2,0c-0.1-0.2-0.1-0.4-0.2-0.7c-0.1,0-0.3,0-0.3,0.1c0,0.8-0.8,1.3-0.9,2.1c-0.1,0.4-0.6,0.7-0.5,1.2
	c0.1,0.3,0,0.5,0,0.9c-0.7,0.3-0.6,1.2-0.8,1.8c-0.1,0.7,0.1,1.4,0.2,2.2c0.6,0,0.3,0.5,0.3,0.8c0.3,0.4,1.1-0.1,1.1,0.7
	c0,0.1,0.8,0.2,1.3,0.3c0,0,0,0.1,0,0.2c0.6,0.1,1.2,0.3,1.7,0.4c0.2-0.2,0.4-0.4,0.6-0.5c0.1,0.3,0.2,0.5,0.2,0.7
	c0.6-0.1,1.2-0.2,1.8-0.3c0.8-0.2,1.8-0.2,2.4-0.6c0.7-0.5,1.7-0.6,2-1.6c0-0.1,0.1-0.1,0.1-0.1c0.6,0.3,0.9-0.2,1.3-0.4
	c0.5-0.3,1.1-0.5,1.4-0.7c0.1-0.4,0.1-0.7,0.1-1.1c0.3,0.3,0.4,0.4,0.6,0.6c0-0.3,0.1-0.5,0.1-0.8c0.2,0,0.3,0,0.5,0
	c0.2,0.5,0.5,0.7,0.7,0.3c0-0.1,0-0.3,0-0.4c0-0.1,0.1-0.2,0.2-0.3c0.1,0.1,0.2,0.2,0.2,0.3c0.1,0.1,0.1,0.2,0.2,0.3
	c0.1-0.3,0-0.7,0.2-0.8c0.3-0.2,0.7-0.2,0.7,0.3c0.4-0.3,0.8-0.7,1.1-1c0.2-0.2,0.5-0.3,0.8-0.5c0.2-0.2,0.2-0.2,0-0.5
	c-0.1-0.1,0-0.3,0-0.5c0.1,0,0.3,0,0.4,0.1c0.1,0.1,0.2,0.2,0.2,0.2c0.3-0.2,0.6-0.5,0.9-0.7c0.1-0.1,0.1-0.4,0.2-0.6
	c0-0.1,0-0.3,0.1-0.4c0.2,0.1,0.3,0.1,0.5,0.2c0.1,0,0.1,0.1,0.2,0.2c0.1-0.1,0.2-0.2,0.1-0.2c-0.2-0.6,0.4-0.7,0.7-0.9
	c0.4-0.3,0.8-0.5,0.9-1.1c0-0.1,0.3-0.3,0.5-0.3c0.4-0.1,0.6-0.3,0.5-0.7c0-0.1,0.1-0.3,0.3-0.4c0,0.2,0.1,0.4,0.1,0.6
	c0.1-0.1,0.3-0.2,0.3-0.2c-0.1-0.8,0.7-0.8,1-1.2c0.1-0.2,0.1-0.5,0.1-0.8c0.2,0.1,0.3,0.2,0.4,0.3c0,0,0.1,0,0.1-0.1
	c0-0.4,0.1-0.7,0.6-0.8c0.2,0,0.8-0.4,0-0.8c0.2-0.2,0.4-0.3,0.6-0.4c0.2-0.2,0.7-0.4,0.2-0.8c0,0,0.2-0.4,0.3-0.4
	c0.8-0.1,1.2-0.5,1.3-1.4c0.1,0.3,0.2,0.4,0.2,0.7c0.1-1.2,0.6-2.1,1.4-2.8c-0.2-0.6-0.1-0.7,0.5-0.7c0-0.2,0.1-0.4,0.1-0.6
	c0-0.4-0.1-0.9,0.5-1c0,0,0,0,0,0c-0.2-0.7,0.6-1.1,0.6-1.8c0-0.6,0.3-0.9,0.8-1.2c0-0.2-0.1-0.5-0.1-0.6c0.6-0.3,1.1-0.5,1.6-0.7
	c0.2-0.1,0.5-0.1,0.8-0.1c0.2,0,0.5,0,0.9-0.1c0.4,0.4,0.7-0.2,1-0.6c0.1,0.6,0.2,0.7,0.7,0.5c0.2-0.1,0.6,0.1,1,0.3
	c0.2-0.1,0.5-0.5,0.8,0.2c0.1,0.2,0.8,0.2,1.2,0.3c0,0.1,0,0.3,0,0.4c0.2,0.2,0.5,0.3,0.6,0.5c0.1,0.5,0.1,1.1,0,1.6
	c0,0.2-0.3,0.4-0.3,0.7c0,0.5-0.1,1.1,0,1.6c0.1,0.4,0.3,0.8,0.4,1.3c0.1,0.2,0,0.5,0.1,0.9c0.1,0,0.3,0.1,0.6,0.2
	c-0.3,0.6-0.9,1.2-0.2,2c0.1,0,0.4,0.1,0.8,0.3c-0.1,0.2-0.1,0.4-0.2,0.5c-0.2,0.2-0.2,0.2,0.1,0.4c0.1,0,0.2,0.2,0.2,0.2
	c-0.2,0.5,0.2,0.6,0.4,0.8c0.2,0.3,0.4,0.7,0.6,1.1c0.2-0.3,0.3-0.4,0.4-0.6c0.2,1,1,1.8,0.9,2.8c0.2,0.1,0.5,0.1,0.5,0.3
	c0.1,0.4,0.3,1,0.1,1.4c-0.2,0.7-0.4,1.3-0.1,2c0.2,0.4-0.1,0.5-0.6,0.4c0.1,0.3-0.4,0.6-0.1,1c0,0-0.2,0.3-0.2,0.3
	c-0.2,0-0.4-0.1-0.5-0.3c-0.1-0.1,0-0.3,0-0.4c0.2,1-0.8,1-1.1,1.7c0,0,0.2,0.2,0.4,0.3c-0.2,0.1-0.4,0.2-0.6,0.3
	c-0.1-0.2-0.2-0.3-0.3-0.5c-0.4,0.8-0.9,1.5-1.3,2.2c-0.1-0.1-0.2-0.2-0.6-0.4c0.1,0.5,0,1,0.2,1.2c0.3,0.3,0.8,0.3,1.2,0.4
	c0.1,0,0.2-0.2,0.4-0.3c0.5-0.1,1-0.1,1.4-0.6c0.2-0.3,0.7-0.3,1.1-0.5c0.1-0.1,0.3-0.2,0.3-0.3c0-0.7,0.3-0.7,0.7-0.3
	c0,0,0.2,0,0.2,0c0-0.2,0.1-0.5,0.1-0.7c0.5,0.1,1.5-0.4,1.7-0.8c0-0.1,0-0.2,0-0.3c0-0.2,0-0.3,0-0.5c0.1,0,0.3,0,0.4,0.1
	c0.1,0,0.2,0.1,0.3,0.2c0.2-0.3,0-1,0.8-0.6c0.1-0.4,0.1-0.8,0.2-1.2c0.3,0,0.7,0.1,0.8-0.1c0.3-0.4,1-0.6,0.9-1.4
	c-0.1-0.5,0.3-0.6,0.7-0.6c0-0.4-0.1-0.7-0.1-1.1c0.1-0.1,0.2-0.2,0.4-0.2c0.1,0.2,0.3,0.4,0.4,0.6c0.1-0.2,0.1-0.4,0.2-0.6
	c0.4,0,0.6-0.3,0.8-1.1c0,0.1,0,0.3,0.1,0.4c0,0,0,0,0,0c0-0.2,0-0.4,0-0.7c0.1,0.1,0.2,0.1,0.2,0.1c0.3-0.2,0.6-0.5,1-0.6
	c0.4-0.1,0.5-0.3,0.3-0.7c-0.1-0.3-0.1-0.5,0.3-0.3c0.1,0,0.4,0,0.4-0.1c0.1-0.6,0.7-0.5,1-0.8c0,0,0,0,0,0.1
	c-0.1-0.3-0.2-0.5-0.2-0.7c0.2,0,0.4,0,0.6-0.1c0.1,0,0.2,0,0.2,0c0.3-0.4,0.6-0.8,0.8-1.3c0.1-0.2,0-0.4,0.1-0.6
	c0.2,0.1,0.4,0.2,0.7,0.2c0.1,0,0.1,0.1,0.2,0.2c0-0.3,0.1-0.5,0.1-0.8c0.3,0.2,0.5,0.4,0.8,0.7c0.1-0.1,0.2-0.2,0.3-0.3
	c0.3,0.1,0.6,0.2,1.1,0.4c0.1-0.1,0.3-0.2,0.6-0.4c0.2,0.3,0.4,0.5,0.5,0.7c0.4-0.1,0.6-0.2,0.8-0.1c0.3,0,0.5,0.4,0.9,0.1
	c0,0,0.2,0.2,0.2,0.3c0,0.3-0.1,0.6,0.4,0.7c0,0,0,0.2,0,0.3c-0.3,0.2-0.6,0.3-0.8,0.6c-0.1,0.1,0.1,0.4,0.1,0.7
	c-0.2,0-0.6,0.1-1,0.1c-0.3,0.6-0.7,1.1-1.1,1.8c-0.1-0.1-0.2-0.3-0.3-0.4c-0.6,0.8-1.1,1.6-1.8,2.6c0.1,0.3-0.1,0.5-0.6,0.6
	c-0.2,0-0.3,0.2-0.4,0.3c-0.1,0.1-0.2,0.2-0.3,0.3c-0.1,0.1-0.3,0.3-0.3,0.4c0.2,0.7-0.1,0.7-0.5,0.5c-0.3,0.2-0.5,0.3-0.6,0.5
	c-0.2,0.3-0.4,0.6-0.6,0.9c-0.1,0.1-0.2,0.2-0.3,0.3c-0.5,0.1-0.6,0.4-0.4,0.9c0.1,0.1,0,0.3-0.1,0.5c-0.2-0.1-0.3-0.3-0.5-0.4
	c-0.3,0.6-1,0.9-0.6,1.8c0.1-0.2,0.1-0.3,0.2-0.6c0.2,0.2,0.4,0.4,0.6,0.5c0.1,0,0.3,0,0.3-0.1c0-0.2,0-0.4,0-0.7
	c0.2,0.1,0.5,0.1,0.5,0.2c0.1,0.6,0.4,0.3,0.7,0.3c0.2,0,0.4,0,0.7,0c0-0.3,0-0.7,0-1c0.2,0,0.4,0,0.6,0c-0.1,0.2-0.2,0.4-0.3,0.7
	c0.4-0.1,0.6-0.3,0.9-0.4c0.3,0,0.8-0.1,1.1-0.5c0-0.1,0.2,0,0.2-0.1c0.1-0.2,0.3-0.3,0.4-0.5c0.1-0.1,0.2-0.3,0.2-0.4
	c0.1,0,0.1,0.1,0.2,0.1c0,0.2-0.1,0.4-0.1,0.6c0.1,0,0.1,0.1,0.2,0.1c0.2-0.2,0.4-0.4,0.5-0.7c0.1-0.3,0.1-0.3,0.4-0.2
	c0.1,0.1,0.4-0.1,0.6-0.2c0.1-0.1,0.1-0.3,0.2-0.3c1-0.1,1.7-0.9,2.6-1.1c0,0,0-0.1,0-0.1c-0.1-0.2-0.2-0.4-0.2-0.6
	c0-0.1,0.3-0.2,0.3-0.2c0.1,0.2,0.2,0.3,0.4,0.6c0.1-0.2,0.2-0.5,0.4-0.8c0.2,0.1,0.4,0.2,0.7,0.4c0-0.6,0.6-0.9,0.4-1.7
	c-0.1-0.5-0.3-0.7-0.8-0.8c0-0.3,0.3-0.8-0.4-0.8c0,0-0.2-0.2-0.1-0.3c0-0.1,0.2-0.2,0.3-0.2c0.2,0.1,0.4,0.2,0.4,0.3
	c0.2,0.5,0.6,0.7,0.9,0.9c0.3,0.2,0.6,0.5,0.9,0.6c0-0.2,0.1-0.5,0.2-0.8c0.6,0.4,1.1,0.1,1.2-0.6c0.1,0.1,0.3,0.2,0.4,0.3
	c-0.1-0.7-0.2-1.3,0.9-1.2c-0.1-0.4-0.1-0.7-0.2-1c0.3,0,0.6-0.1,0.9-0.1c-0.1-0.2,0.4-0.7-0.2-0.9c0.1-0.1,0.1-0.3,0.2-0.4
	c0.1-0.1,0.3-0.1,0.4-0.2c0-0.5,0.1-0.9,0.1-1.5c-0.1-0.1-0.6-0.1-0.5-0.7c0.1-0.4-0.5-1-0.8-1.5c0,0-0.2,0-0.2,0c0-0.2,0-0.6,0-0.6
	c-0.3-0.1-0.5,0-0.9,0c0,0-0.1-0.1-0.1-0.2c0-0.5-0.3-0.6-0.7-0.5c-0.3,0-0.7,0.4-0.7-0.2c-0.2,0.3-0.4,0.5-0.6,0.7
	c0,0-0.1,0-0.1-0.1c-0.3-0.8-0.3-0.8-1.2-0.5c-0.8,0.2-1.6,0.5-2.3,0.9c-0.2,0.1-0.6,0.1-0.9,0c-0.1,0,0-0.4-0.1-0.7
	c0-0.2-0.1-0.3-0.1-0.5c0-0.2-0.1-0.7,0.4-0.5c0.1,0,0.1,0,0.2,0c0.4-0.3,0.8-0.6,1.3-0.8c0.4-0.2,0.8-0.2,1.2-0.4
	c0.4-0.1,0.7-0.4,1-0.6c0.5-0.1,1.1-0.2,1.7-0.3c-0.1-0.2-0.2-0.5-0.3-0.7c0,0,0.1-0.1,0.1-0.1c0.2,0.1,0.4,0.2,0.6,0.3
	c0,0.1,0,0.2,0,0.3c0.7-0.2,1.3-0.4,2-0.6c0.3-0.1,0.7,0,1.1-0.2c0.3-0.1,0.6-0.2,1-0.1c0.1,0,0.3,0.1,0.3,0.1
	c0.3-0.2,0.5-0.5,0.8-0.5c0.3,0,0.6,0,0.9-0.3c0,0,0.3,0.2,0.6,0.4c0.1-0.2,0.3-0.4,0.5-0.8c0.1,0.3,0.2,0.5,0.2,0.7
	c0.8,0,1.6-0.1,2.4-0.2c0.1,0,0.1-0.1,0.2-0.1c0.2,0,0.5-0.4,0.7,0.1c0,0.1,0.4,0.1,0.7,0.1c0.2,0,0.4,0.1,0.6,0.1
	c0.1,0,0.3,0.1,0.4,0.1c0.6-0.5,0.7-0.2,0.7,0.4c0.4,0,0.7,0,1,0c0.1,0,0.3,0.1,0.3,0.2c0,0.7,0.4,0.7,0.9,0.6c0.1,0,0.2,0,0.3,0
	c0.1,0.4,0.3,0.6,0.7,0.9c0.4,0.4,1.1,0.6,1.1,1.4c0,0.5,0.6,0.9,1,1.4c0.1-0.2,0.3-0.3,0.5-0.6c0.1,0.3,0.1,0.5,0.2,0.7
	c-0.2,0-0.3,0-0.4,0c0,0.5,0,1,0,1.5c0,0.3,0.3,0.6,0.3,0.9c0.2,1-0.2,1.9-0.2,2.8c0,0.3,0,0.5,0,0.8c0,0.2-0.1,0.5-0.1,0.8
	c-0.4-0.3-0.6-0.4-0.7,0.1c0,0.1-0.2,0.2-0.2,0.3c-0.1,0.2-0.2,0.4-0.4,0.6c-0.2,0.2-0.3,0.5-0.5,0.5c-0.6,0.3-0.6,0.3-0.3,0.8
	c0.1,0.1,0,0.3,0.1,0.6c-0.4-0.3-0.7-0.6-0.9-0.8c-0.2,1.1-0.3,1.2-0.9,0.8c-0.4,0.9-1.5,0.9-2.1,1.4c0.1,0.1,0.3,0.2,0.4,0.4
	c-0.3,0.1-0.4,0.1-0.6,0.2c-0.1-0.1-0.2-0.3-0.3-0.4c-0.2,0.2-0.3,0.4-0.5,0.6c-0.1,0-0.3-0.1-0.4-0.2c-0.2,0.3-0.3,0.6-0.5,0.7
	c-0.1,0.1-0.4,0-0.8-0.1c0.1,0.5,0.3,0.7,0.7,0.5c0.5-0.2,1.1-0.2,1.5-0.5c0.4-0.3,0.8-0.3,1.2-0.1c0.1,0,0.2-0.1,0.3-0.2
	c0.3-0.3,0.6-0.3,0.8,0.1c0.1-0.2,0.3-0.5,0.4-0.8c0.7,0.9,1.4,0.4,2,0.2c-0.1-0.1-0.4-0.3-0.4-0.3c0.1-0.2,0.3-0.4,0.5-0.7
	c0.1-0.1,0.1-0.3,0.2-0.5c0.1-0.2,0.3-0.4,0.4-0.6c0.1-0.1,0.3-0.3,0.3-0.4c-0.2-0.7,0.4-0.9,0.8-1.2c0.4-0.4,1-0.6,1.1-1.3
	c0-0.1,0.2-0.1,0.3-0.2c0.1-0.1,0.3-0.2,0.4-0.4c0.1-0.1,0.2-0.1,0.4-0.1c0,0,0-0.1,0-0.3c0.1,0.1,0.2,0.1,0.4,0.3
	c0-0.3,0-0.5,0.1-0.8c0.7,0,1-0.7,1.5-1.1c0.1,0,0-0.2,0.1-0.3c0.1-0.5,0.4-0.6,0.7-0.4c0.8-0.5,1.5-0.9,2.1-1.3
	c0.1-0.2,0.1-0.5,0.2-0.7c0.2,0.1,0.3,0.1,0.5,0.2c0.4,0.1,0.4-1.4,1.1-0.5c0.4-0.2,0.7-0.3,0.9-0.4c0.1,0,0.1,0,0.2-0.1
	c1-0.8,2.3-0.7,3.4-1.2c0.5-0.2,1-0.6,1.7-0.3c0.2-0.6,1,0.1,1.2-0.6c0,0,0.2,0,0.3,0c0.2,0,0.4,0.1,0.5,0c0.3-0.5,0.5-0.3,0.7,0
	c0,0,0.4-0.2,0.4-0.3c-0.1-0.7,0.4-0.3,0.7-0.4c-0.1,0.3-0.1,0.5-0.1,0.7c0.5,0,1,0.1,1.6,0.1c0-0.1,0.1-0.3,0.1-0.7
	c0.2,0.2,0.4,0.4,0.6,0.6c0.1,0.1,0.2,0.2,0.2,0.2c0.5-0.1,0.9-0.1,1.3,0.1c0.2,0.1,0.5,0,0.9,0.1c0.1-0.2,0.2-0.5,0.3-0.8
	c0.2,0.1,0.3,0.3,0.5,0.4c-0.1,0.2-0.2,0.3-0.3,0.5c0.3,0.1,0.6,0.2,0.9,0.3c0-0.1,0.1-0.2,0.2-0.5c0.1,0.3,0.2,0.5,0.4,0.8
	c0.2,0,0.6,0,0.9,0.1c0.1,0,0.2,0.1,0.3,0.2c0.2,0.2,0.3,0.4,0.5,0.5c0.1,0.2,0.3,0.5,0.4,0.6c0.5,0.1,0.5,0.4,0.5,0.8
	c0.1,0.2,0.2,0.4,0.2,0.6c0,0.1,0,0.2,0,0.3c-0.1,0.3-0.4,0.5-0.4,0.8c-0.1,0.7-0.4,1.4-0.7,2.1c0,0.1,0,0.3,0,0.5
	c-0.1-0.1-0.3-0.1-0.4-0.2c0,0.8-0.6,1.1-1.2,1.5c-0.6,0.4-1.3,0.5-1.9,1c0,0-0.2,0-0.3,0c-0.3,0-0.6,0-0.9,0
	c0.1,0.4,0.2,0.6,0.2,0.8c-0.1,0-0.1,0.1-0.2,0.1c-0.1-0.2-0.2-0.3-0.4-0.5c-0.1,0-0.3,0.1-0.4,0.1c0.2,0.4,0.1,0.7-0.4,0.7
	c-0.1,0-0.2-0.3-0.4-0.6c-0.2,0.3-0.3,0.5-0.5,0.8c-0.2-0.4-0.2-0.8-0.8-0.4c-0.4,0.2-0.9,0.2-1.3,0.3c-0.2,0.1-0.3,0.3-0.5,0.5
	c0,0-0.2-0.2-0.3-0.3c-0.1,0.2-0.2,0.3-0.3,0.4c0-0.1,0-0.1,0-0.2c-0.2,0-0.4-0.1-0.6,0c-0.6,0.1-1.3,0.1-1.8,0.4
	c-0.5,0.3-1.2-0.2-1.5,0.5c0,0.1-0.4,0-0.7,0c-0.2,0.5-0.5,0.6-0.9,0.1c-0.2,0.2-0.4,0.5-0.6,0.6c-0.3,0-0.6-0.2-0.8-0.4
	c0.1,0.3,0.2,0.5,0.2,0.8c-0.4-0.1-0.6-0.2-0.9-0.2c-0.1,0.3-0.2,0.6-0.3,0.8c0.6,0.2,0.7,0.5,0.4,0.8c0.1,0.3,0.2,0.6,0.3,0.9
	c0,0,0,0,0,0c0.2,0.4,0.5,0.7,0.7,1.1c0,0,0.2-0.1,0.3-0.2c0.1-0.3,0.1-0.5,0.2-0.7c0.1,0,0.1,0,0.2,0c0,0.2,0,0.4,0,0.6
	c0.7,0,1.3,0,1.9-0.3c0.1-0.1,0.4,0.1,0.6,0.1c0.2-0.2,0.5-0.4,0.7-0.6c0.1,0.2,0.2,0.4,0.3,0.5c0-0.1,0-0.3,0.1-0.4
	c0.2-0.2,0.4-0.3,0.6-0.5c0.1,0.3,0.1,0.5,0.3,0.9c0.2-0.4,0.4-0.8,0.6-1.1c0,0,0.1,0,0.1,0c0,0.2,0,0.4,0,0.8
	c0.4-0.1,0.8-0.1,1-0.3c0.3-0.4,0.8-0.3,1.2-0.4c0.2-0.1,0.4-0.3,0.4-0.4c0-0.4-0.1-0.4,0.4-0.6c0,0.2,0.1,0.4,0.1,0.5
	c0.2-0.1,0.5-0.2,0.7-0.2c0.4-0.1,0.8,0,0.6-0.6c0-0.1,0.1-0.3,0.2-0.3c0.2,0,0.4,0.1,0.7,0.2c0.1-0.5,0.4-0.7,0.9-0.4
	c0.6-0.4,1.1-0.7,1.6-1c0.1,0.1,0.2,0.2,0.3,0.3c0.5-0.9,1.4-1,2.2-1.3c-0.1-0.1-0.2-0.3-0.4-0.5c0.8,0,1.4-0.3,2-0.7
	c0.5-0.3,1.3-0.6,1.1-1.6c0.3,0.3,0.5,0.5,0.8,0.8c0-0.4,0-0.6,0-0.7c0-0.1,0.1-0.3,0.1-0.3c0.6,0.2,0.9-0.7,1.6-0.5
	c0-0.3,0-0.5,0-0.7c0-0.2,0.1-0.3,0.3-0.6c0.1,0.3,0.2,0.5,0.2,0.5c0.5-0.4,0.9-0.7,1.4-1.1c0.1-0.1,0.1-0.2,0-0.3
	c0-0.2-0.1-0.3-0.2-0.5c0.1,0.1,0.3,0.2,0.4,0.2c0.1,0,0.1,0.1,0.2,0.1c0.2-0.3,0.3-0.5,0.5-0.9c0.1,0.3,0.3,0.5,0.3,0.6
	c0.2-0.3,0.4-0.7,0.7-1.2c0.2,0.3,0.3,0.4,0.4,0.5c0.1-0.7,0.1-0.7,0.8-0.6c0.2,0,0.5,0.2,0.5-0.2c0-0.1,0.2-0.1,0.4-0.2
	c0.1,0,0.2,0,0.3,0c0.4-0.2,0.7-0.4,1.1-0.6c0.5-0.2,1-0.5,1.4-0.7c0.2-0.1,0.3,0,0.5-0.2c0.1-0.1,0.5-0.1,0.9-0.1
	c0.2-0.2-0.6-0.9,0.4-0.9c0,0.3,0,0.5,0,0.7c0.2-0.1,0.4-0.1,0.5-0.1c0-0.2-0.1-0.4,0-0.6c0-0.1,0.4-0.1,0.4,0
	c0.2,0.7,0.5,0.5,0.8,0c0.3,0.2,0.6,0.4,1,0.1c0.1-0.1,0.3-0.1,0.5-0.1c0.6-0.2,1.3,0.3,1.7-0.4c0-0.1,0.3-0.1,0.4,0
	c0.3,0.2,0.3,0.2,0.5-0.1c0-0.1,0.1-0.1,0.3-0.3c0,0.3,0,0.5,0.1,0.8c0.5,0,1.1-0.1,1.7-0.2c0.2-0.3,0.4-0.3,0.7,0.1
	c0.1,0.1,0.2,0.2,0.5,0.1c0.4-0.1,0.8,0.1,1.2,0.1c0,0.1,0,0.2,0.1,0.3c0.1-0.2,0.3-0.4,0.4-0.5c0.9,0.6,0.9,0.6,2.7,0.3
	c-0.3,0.7,0.2,0.7,0.6,0.7c0.2,0,0.4,0.1,0.7,0.1c0.2,0,0.5-0.1,0.7-0.2c0.2,0.7,0.4,0.8,1.3,0.5c-0.1,0.5-0.1,1.1-0.3,1.5
	c-0.2,0.4-0.6,0.6-1,0.9c0,0.2,0,0.5-0.1,0.8c-0.1,0-0.1,0-0.2,0c-0.1-0.2-0.1-0.5-0.2-0.6c-0.4,0.4-0.8,0.8-1.1,1.2
	c-0.2,0.2-0.1,0.6-0.2,0.9c-0.4-0.2-0.8-0.5-0.9,0.3c0,0.1-0.4,0.2-0.5,0.3c0,0-0.1-0.1-0.1-0.1c-0.1,0.3-0.2,0.7-0.3,1
	c-0.1,0.1-0.3,0.1-0.6,0.2c0,0.1-0.2,0.2-0.3,0.4c-0.1-0.1-0.2-0.2-0.3-0.3c-0.5,0.8-1.3,1.4-1.4,2.2c-0.2,0.1-0.4,0.2-0.4,0.2
	c0,0.4,0.1,0.7-0.3,1c-0.1,0.1,0,0.3,0.1,0.5c-0.2-0.1-0.5-0.1-0.7-0.2c0,0.1,0.1,0.1,0.1,0.2c-0.2,0.2-0.4,0.4-0.5,0.7
	c-0.3,0.5-0.1,1.2,0.5,1.6c0.3-0.6,0.7-0.2,1-0.1c0.1-0.2,0.2-0.4,0.4-0.6c0.3,0.3,0.5,0.3,0.8-0.1c0.1-0.1,0.4-0.1,0.6-0.2
	c0.5-0.2,1-0.5,1.5-0.4c0.2,0,0.3-0.2,0.5-0.3c0.5-0.2,1-0.4,1.4-0.4c0.6,0,0.5-0.2,0.5-0.6c0-0.6,0.2-0.8,0.9-0.6
	c0.1-0.3,0.2-0.5,0.3-0.8c-0.5-0.1-0.3-0.4-0.1-0.7c0.1-0.2,0.2-0.4,0.3-0.6c0.2-0.4,0.4-0.8,0.7-1.1c0.3-0.3,0.3-0.5-0.1-0.9
	c0.4-0.2,0.7-0.3,0.9-0.4c0.1-0.1,0.1-0.4,0.1-0.4c-0.4-0.3-0.1-0.4,0.1-0.6c0.2,0.1,0.3,0.2,0.3,0.3c0.4-0.4,0.8-0.7,1.1-1
	c0-0.3,0-0.6,0-1c0.3,0.1,0.5,0.2,0.6,0.3c0.4-0.2,0.3-0.8,1-0.8c0.2,0,0.3-0.4,0.5-0.6c0,0,0.2,0.1,0.3,0.1c0-0.5,0-0.9,0.7-0.9
	c0.5,0,1-0.5,1.5-0.8c0.1-0.1,0.3-0.1,0.4-0.2c0.1-0.1,0.2-0.2,0.2-0.4c0-0.1,0-0.3,0.1-0.5c0.2,0,0.4,0.1,0.6,0.1
	c0.1,0,0.1,0.1,0.2,0.1c0.2-0.7,0.3-0.7,1-0.5c0-0.3,0-0.7,0.5-0.5c0.1,0.1,0.4-0.2,0.5-0.2c0.3-0.1,0.7-0.3,1-0.4
	c0.5-0.1,1-0.2,1.5-0.3c0.4-0.1,0.9-0.2,1.3-0.4c0.3-0.2,0.4-0.2,0.7,0c0.3,0.3,1.2,0.2,1.5-0.1c0.1-0.1,0-0.2,0-0.3
	c0-0.2,0-0.4,0.1-0.6c0.1,0,0.1,0,0.2,0c0,0.1,0.1,0.3,0.1,0.4c0,0.2,0,0.4,0,0.6c0.3,0,0.7,0,0.8-0.1c0.4-0.4,0.6-0.1,0.8,0.1
	c0.2-0.2,0.4-0.3,0.6-0.6c0.3,1.1,1.3,0.4,1.7,0.9c0.2-0.2,0.2-0.4,0.4-0.5c0.1-0.1,0.3,0,0.4,0c0,0.1-0.1,0.2-0.1,0.4
	c0,0.1-0.1,0.1-0.1,0.2c0.1,0,0.2,0.1,0.2,0.1c0.4,0,0.9,0,1.3,0c0.2,0.6,0.4,0.8,0.9,0.6c0.2,0.3,0.4,0.6,0.5,0.9
	c0.1,0.3,0.2,0.6,0.4,0.9c0.4,0.1,0.4,0.1-0.1,0.9c0.1,0,0.2,0,0.5,0c-0.2,0.3-0.4,0.6-0.5,0.8c-0.1,0.2-0.1,0.5-0.2,0.7
	c-0.1,0.2-0.1,0.5-0.2,0.6c-0.3,0.2-0.6,0.5-0.6,0.9c0,0.1-0.1,0.2-0.2,0.4c-0.1-0.1-0.2-0.1-0.3-0.2c-0.6,0.3-1.1,0.7-1.7,1
	c-0.1-0.1-0.1-0.1-0.2-0.2c0,0.3-0.1,0.6-0.2,1c-0.2-0.1-0.4-0.2-0.6-0.3c0-0.1,0-0.1,0.1-0.2c-0.2,0.1-0.4,0.2-0.4,0.2
	c-0.1,0.3-0.1,0.5-0.2,0.9c-0.2-0.3-0.3-0.5-0.4-0.7c-0.2,0.3-0.3,0.5-0.5,0.7c-0.1,0.1-0.2,0.1-0.4,0.1c-0.2,0-0.4,0-0.6-0.1
	c0,0.3-0.1,0.5-0.5,0.5c-0.2,0-0.4,0.1-0.6,0.2c-0.2,0.1-0.5,0.1-0.7,0.2c-0.5,0.2-0.9,0.4-1.3,0.6c-0.4,0.2-0.9,0.5-1.3,0.7
	c-0.1,0-0.1,0.1-0.1,0.2c-0.1,0.3-0.2,0.6-0.3,0.8c-0.7-0.3-0.4-0.5-0.1-0.8c-0.1,0-0.2-0.1-0.2-0.1c-0.2,0.2-0.3,0.3-0.5,0.5
	c-0.1,0.1-0.2,0.3-0.2,0.5c-0.1-0.1-0.2-0.3-0.4-0.5c-0.1,0.1-0.3,0.1-0.5,0.2c0,0.2,0,0.3,0.1,0.6c-0.2-0.2-0.4-0.3-0.6-0.5
	c-0.1,0.3-0.2,0.6-0.4,1.1c-0.2-0.3-0.3-0.5-0.6-0.8c-0.1,0.2-0.1,0.4-0.2,0.5c-0.1,0.2-0.2,0.3-0.3,0.5c0,0.1-0.1,0.3-0.1,0.4
	c0.1,0,0.2,0,0.4,0c0,0.3,0,0.6,0,0.8c0,0,0.1-0.1,0.1-0.1c0.3,0.4,0.6,0.8,0.9,1.2c0.2-0.1,0.4-0.3,0.7-0.5c0,0.4,0,0.7,0,0.9
	c0.3,0.2,0.5,0.4,0.8,0.5c0-0.2,0-0.4,0.1-0.8c0.5,0.5,0.9,1.1,1.5,0.8c0.4,0.1,0.7,0.2,0.9,0.3c0.3,0.1,0.5,0.3,0.8,0.4
	c0.1,0,0.3,0,0.4-0.1c0.1-0.1,0.2-0.2,0.4-0.4c0.1,0.1,0.3,0.2,0.3,0.4c0.2,0.4,0.5,0.6,0.9,0.3c0.1,0,0.2,0,0.3,0
	c0,0.4,0.4,0.2,0.5,0.3c0.1-0.2,0.1-0.3,0.2-0.5c0-0.1,0.1-0.1,0.2-0.3c0.1,0.3,0.1,0.5,0.1,0.7c0.2,0,0.4,0,0.7,0.1
	c0-0.2,0-0.3,0-0.5c0-0.1,0-0.2,0.1-0.3c0,0,0.2,0,0.2,0c0,0.1,0,0.3,0,0.4c0,0.1,0,0.2,0,0.3c0.6-0.1,1.2,0.3,1.7-0.2
	c0.2-0.2,0.6-0.2,0.9-0.3c0,0,0.1,0.1,0.1,0.1c0.5-0.2,0.5-0.2,0.7,0.2c0.2-0.3,0.4-0.6,0.6-0.9c0.4,0.8,1.8,0.9,2.3,0.5
	c0.3-0.1,0.5-0.2,0.8-0.2c0.2,0,0.3,0,0.5-0.1c0.5-0.2,1-0.4,1.5-0.4c0,0,0.1-0.2,0.1-0.2c0.3,0.1,0.6,0.2,0.8,0.2
	c0-0.2,0-0.4,0-0.8c0.3,0.2,0.4,0.4,0.7,0.6c1.3-0.3,2.8-0.6,4.5-0.9c0.3-0.4,0.5-0.4,0.9,0c0.1-0.2,0.2-0.4,0.2-0.5
	c0.2,0.1,0.4,0.3,0.6,0.3c0.1,0,0.4-0.1,0.4-0.2c0.2-0.4,0.1-0.4,0.4-0.1c0.1,0.1,0.3,0.2,0.6,0.3c0-0.3-0.1-0.5-0.1-0.9
	c0.3,0.2,0.5,0.3,0.7,0.4c0.1,0.1,0.3,0.2,0.4,0.2c0.1,0,0.2-0.1,0.3-0.1c-0.1-0.1-0.1-0.1-0.2-0.2c-0.1-0.1-0.2-0.2-0.3-0.4
	c0.6-0.2,0.5-0.2,0.7,0.3c0,0.1,0.3,0.3,0.3,0.2c0.2-0.3,0.6-0.1,0.8-0.1c0.7-0.1,1.4-0.4,2.1-0.3c0.1,0,0.1-0.1,0.2-0.1
	c0.3-0.3,0.7-0.5,1,0c0,0.1,0.4,0,0.6-0.1c-0.5-0.3-0.4-0.5,0-0.6c0.6,0.9,0.5-0.2,0.8-0.3c0,0.6,0.3,0.8,0.9,0.6
	c0.4-0.2,0.9-0.3,1.4-0.3c0.2,0,0.4,0.1,0.6,0.2c0.3-1.1,0.6,0,1,0c0-0.2,0.1-0.5,0.1-0.7c0.4,0.1,0.7,0.3,1.1,0.4c0-0.4,0-0.6,0-1
	c0.2,0.1,0.3,0.2,0.3,0.3c0.3,0.5,0.6,0.9,1.4,0.4c0.4-0.2,1,0,1.5,0c0,0,0-0.2,0.1-0.3c0.4,0.1,0.8,0.3,1.1,0.4
	c0.1-0.3,0.1-0.5,0.2-0.7c0.1,0,0.1,0,0.2,0c0,0.2,0,0.4,0,0.6c0.7-0.1,1.5,0.4,2.1-0.4c0.3,0.6,0.3,0.6,1.1-0.2
	c0.3,1,1.2,0.5,1.9,0.6c0,0,0.1-0.2,0.2-0.4c0.5,0.5,0.8,0.2,1.3-0.2c0,0.3,0.1,0.5,0.1,0.8c0.3-0.1,0.6-0.1,0.8-0.2
	c0.1,0,0.2,0,0.2,0c0.2,0.5,0.8,0.2,1.2,0.4c0.2,0.1,0.5,0.1,0.8,0.1c0.3,0.1,0.7,0,0.8,0.2c0.3,0.4,0.6,0.3,0.9,0.2
	c0.1,0,0.3,0.1,0.4,0.2c0.2-0.1,0.4-0.3,0.6-0.5c0.1,0.5,0.3,0.8,0.8,0.7c0.3,0,0.6,0.1,0.9,0.2c0.1-0.1,0.3-0.3,0.5-0.4
	c0.1,0.2,0.3,0.4,0.4,0.5c0.6,0.1,1.2,0.2,1.7,0.4c0-0.1,0.1-0.3,0.1-0.6c0.2,0.4,0.4,0.7,0.5,0.9c0.3,0,0.8-0.2,0.9-0.1
	c0.4,0.6,1.3,0.3,1.6,1c0.1,0.1,0.4,0.2,0.6,0.2c0.3,0.1,0.6,0.1,0.8,0.1c0.3-0.1,0.5-0.2,0.7-0.3c0,0.1,0.1,0.1,0.1,0.2
	c-0.1,0.2-0.2,0.4-0.2,0.4c0.3,0.2,0.5,0.4,0.8,0.6c0.1-0.2,0.2-0.4,0.5-0.8c0,0.4,0,0.6,0,0.8c0.4-0.2,0.8,0.8,1.3-0.1
	c0,0.3,0,0.6,0,0.6c0.3,0.3,0.6,0.5,0.7,0.8c0.1,0.5,0.4,0.4,0.7,0.4c0.2,0,0.5,0.1,0.5,0.2c0.1,0.5,0.4,0.8,0.7,1.2
	c0.6,0.6,0.5,1.4,0.5,2.4c-0.7,0.1-1.5,0.2-2.2,0.3c-0.2,0-0.4-0.3-0.7-0.4c-0.3-0.1-0.8,0-1-0.2c-0.3-0.2-0.4-0.1-0.5,0.1
	c-0.1,0.1-0.3,0.1-0.5,0.2c0-0.3,0-0.4,0-0.7c-0.4,0-0.8,0-1,0c-0.2-0.3-0.4-0.5-0.5-0.7c-0.1,0.1-0.2,0.2-0.3,0.3
	c0,0.2,0.1,0.4,0.1,0.6c-0.1,0.1-0.3,0.2-0.5,0.4c0.3-0.8,0-1.1-0.6-1.3c-0.2,0.1-0.4,0.3-0.7,0.5c0-0.2,0-0.4,0-0.6
	c0,0-0.1-0.1-0.1-0.1c-0.7,0.2-1.2-0.4-1.9-0.5c-0.8-0.2-1-0.2-1.6,0c-0.3-0.8-0.3-0.8-1.4-0.7c0.1-0.6-0.4-0.5-0.7-0.7
	c-0.7-0.2-1.4-0.5-2.2-0.7c-0.4,0.5-0.4,0.5-0.8-0.1c-0.1-0.1-0.4-0.2-0.6-0.2c-0.2,0-0.4,0-0.6-0.1c-0.7-0.4-1.4-0.2-2-0.2
	c-0.4,0-0.8,0.1-1.2,0.2c-0.4-0.5-1.1-0.6-1.8-0.6c-0.6,0-1,0-1.5-0.1c-0.1,0-0.3,0.1-0.5,0.1c-0.4,0-0.9,0-1.3-0.1
	c-0.2,0-0.3-0.1-0.5-0.1c-0.4,0-0.8-0.1-1.2-0.1c-0.5,0-1,0.1-1.5,0.1c-0.1,0.1-0.4,0.4-0.6,0.6c-0.2-0.6-0.2-0.5-0.9-0.4
	c-0.6,0.1-1.2-0.1-1.8-0.1c-0.2,0.3-0.4,0.6-0.8,0c-0.1-0.2-0.8-0.1-1.1,0c-0.7,0.2-1.3,0.2-2,0.1c-0.1,0-0.4,0-0.4,0.1
	c-0.3,0.5-0.5,0.4-0.8,0c-0.2,0.3-0.3,0.5-0.5,0.7c-0.1-0.2-0.3-0.4-0.4-0.6c-0.6,0.1-1.3,0.1-2,0.2c-0.2,0-0.4,0.2-0.6,0.2
	c-0.1,0-0.3,0-0.4-0.1c-0.3,0-0.6,0-0.9,0c0,0.1,0,0.1,0,0.1c-0.5,0-1,0-1.5,0c-0.4,0-0.7,0-1.1,0.1c-0.1,0-0.2,0-0.3,0.1
	c-0.4,0.4-0.7,0.3-1,0.1c-0.1,0.2-0.2,0.5-0.4,0.8c-0.3-0.3-0.5-0.4-0.7-0.7c0,0.3,0,0.5-0.1,0.6c-0.1,0.1-0.3,0.1-0.4,0.1
	c-0.3-0.6-0.8-0.3-1.3-0.4c-0.3-0.1-0.7,0.1-1.1,0.2c-0.1-0.1-0.3-0.4-0.5-0.6c-0.1,0.3-0.1,0.6-0.2,1c-0.3-0.3-0.4-0.4-0.7-0.7
	c-0.1,0.3-0.1,0.5-0.2,0.8c-0.4-0.9-1-0.5-1.6-0.4c-0.5,0-0.9,0-1.5,0c0,0.1-0.1,0.3-0.2,0.5c-0.3-0.1-0.5-0.2-0.8-0.3
	c0,0.2,0,0.4,0,0.5c0,0-0.1,0.1-0.1,0.1c-0.1-0.2-0.2-0.3-0.3-0.5c-0.1,0-0.3,0.1-0.5,0.1c0,0.1,0,0.4,0,0.6c-0.1,0-0.2,0.1-0.2,0
	c-0.3-0.4-0.8-0.4-1.3-0.5c-0.3-0.1-0.6-0.4-0.9,0c0,0-0.1,0-0.1,0c-0.7-0.6-0.7,0.5-1.3,0.4c0-0.1-0.1-0.3-0.2-0.6
	c-0.6,0.1-1.1,0.3-1.7,0.4c0-0.1-0.2-0.2-0.3-0.4c-0.2,0.2-0.3,0.4-0.5,0.7c-0.3-0.1-0.6-0.2-1-0.3c0,0.2,0,0.4-0.1,0.8
	c-0.3-0.3-0.5-0.4-0.8-0.6c-0.2,0-0.6-0.1-0.9-0.1c-0.1,0-0.3,0-0.4,0.1c-0.4,0.3-0.7,0.3-0.8-0.4c-0.2,0.3-0.3,0.5-0.5,0.8
	c0,0-0.1,0-0.1,0c-0.3-0.6-0.9-0.6-1.3-0.5c-0.7,0.2-1.4-0.1-2.1-0.1c-0.6,0-1.2-0.2-1.8-0.3c-0.5-0.1-0.9,0-1.4-0.1
	c-0.2,0-0.5,0-0.7-0.1c-0.5-0.4-0.5,0-0.7,0.3c0-0.2-0.1-0.4-0.1-0.5c-0.1-0.1-0.2-0.1-0.3-0.1c-0.3-0.2-0.5-0.3-0.8,0.1
	c-0.1,0.1-0.3,0.1-0.5,0.1c0.1-0.1,0.2-0.2,0.2-0.4c0.1-0.1,0.1-0.3,0.2-0.4c-0.5,0-1,0.1-1.6,0.1c0-0.2,0.1-0.5,0.1-0.6
	c-0.4-0.3-0.7-0.6-1.1-1c0,0-0.2,0.2-0.2,0.1c-0.3-0.2-0.6-0.4-0.5-0.8c-0.2-0.1-0.4-0.3-0.6-0.4c-0.4,0.6-0.7-0.1-1.1-0.1
	c0,0.1,0.1,0.3,0.1,0.6c-0.3,0-0.5-0.1-0.7-0.1c-0.2,0.3-0.3,0.6-0.5,0.9c-0.1-0.1-0.2-0.2-0.4-0.3c-0.1-0.1-0.2-0.2-0.3-0.4
	c-0.1,0.1-0.3,0.2-0.4,0.3c-0.2,0-0.4,0-0.6,0c0,0.1-0.1,0.3-0.1,0.5c-0.2,0-0.4-0.1-0.5-0.1c-0.1,0-0.3,0-0.3,0
	c-0.1,0.8-0.9,0.3-1.3,0.7c-0.1,0.1-0.4,0-0.6,0c-0.2,0.3-0.3,0.9-0.8,0.4c-0.4,0.6-0.6,0.6-1,0c-0.1,0.3-0.3,0.5-0.4,0.8
	c-0.2-0.1-0.4-0.1-0.6-0.2c-0.2,0.2-0.3,0.4-0.5,0.6c-0.2-0.2-0.4-0.3-0.6-0.5c-0.3,0.2-0.1,1.2-0.9,0.6c-0.2,0.2-0.3,0.6-0.8,0.4
	c-0.1,0-0.3,0.4-0.6,0.7c0,0-0.2,0-0.3,0.1c0,0,0.1,0.1,0.1,0.1c-0.2,0.3-0.5,0.6-0.7,1c-0.1,0.1-0.1,0.2-0.1,0.3
	c0.2,0.6-0.4,1-0.6,1.5c0,0-0.2,0-0.2,0.1c-0.2,0.3-0.4,0.5-0.5,0.8c-0.2,0.3-0.2,0.6-0.5,1.2c-0.2-0.2-0.3-0.3-0.5-0.5
	c0-0.1,0.1-0.2,0.1-0.3c-0.1,0.2-0.2,0.4-0.3,0.6c-0.1,0.1-0.1,0.2-0.2,0.3c-0.1-0.1-0.2-0.2-0.4-0.4c-0.3,0.4-1,0.6-1,1.4
	c0,0.3-0.4,0.5-0.4,0.8c-0.1,0.5-0.2,0.9-0.3,1.4c0,0.2,0.2,0.4,0.3,0.6c-0.2,0-0.4,0.1-0.6,0.1c-0.1,0.2-0.3,0.4-0.3,0.5
	c0,0.2,0.1,0.3,0.2,0.6c-0.7,0.1-0.8,0.7-0.8,1.3c-0.2-0.1-0.3-0.2-0.4-0.3c-0.2,0.4-0.2,1-0.8,1.2c-0.2,0-0.2,0.5-0.3,0.8
	c0,0.3,0.1,0.6-0.4,0.7c-0.1,0-0.2,0.3-0.2,0.4c-0.1,0.1-0.1,0.4-0.2,0.4c-0.7,0.2-0.5,0.7-0.6,1c-0.4,0.4-0.7,0.6-1,0.9
	c-0.2,0.2-0.2,0.5-0.4,0.7c-0.2,0.3-0.4,0.7-0.6,0.8c-0.5,0.2-0.3,0.6-0.4,0.7c-0.5,0.4-1,0.8-1.5,1.3c0,0.1,0.1,0.2,0.2,0.4
	c-0.9,0.1-0.9,0.8-1,1.5c-0.1,0-0.1,0-0.2,0c-0.1-0.2-0.2-0.3-0.3-0.5c-0.3,0.4-0.7,0.7-1,1.1c-0.1,0-0.1-0.1-0.2-0.1
	c0,0.3,0,0.6,0,1c-0.3-0.1-0.5-0.1-0.6-0.1c-0.6,0.6-1.2,1.1-1.7,1.6c-0.1,0,0,0.2-0.1,0.2c-0.3,0.2-0.2,0.8-0.8,0.7
	c0,0.1-0.1,0.2-0.1,0.3c0,0.2,0.1,0.4,0.1,0.6c-0.1,0-0.1,0-0.2,0c-0.1-0.2-0.2-0.4-0.2-0.5c-0.5-0.1-0.4,1-1.1,0.6
	c-0.4,0.9-1.5,0.9-2.2,1.4c0,0.2,0,0.5,0,0.8c-0.4-0.2-0.6-0.3-0.9-0.4c0,0.2,0,0.3-0.1,0.5c-0.7-0.6-0.7,0.3-1.1,0.5
	c-0.4-0.3-0.6-0.3-0.9,0.2c-0.1,0.3-0.6,0.4-1,0.5c-0.7,0.2-1.5,0.4-2.3,0.6c-0.1,0-0.2,0.2-0.4,0.2c-0.5,0.1-1.1,0.2-1.6,0.3
	c-0.1,0-0.2,0.1-0.3,0.2c-0.3,0.3-0.7,0.5-0.9-0.2c-0.4,0.6-0.8,0.9-1.3,0.1c-0.1,0.4-0.2,0.6-0.2,0.9c-0.1,0-0.1,0-0.2-0.1
	c0-0.2,0-0.3,0-0.5c-0.7,0.1-1.4,0.4-2.1,0.3c-0.5-0.1-1,0.5-1.5,0c0,0-0.1,0-0.2,0.1c-0.2,0.3-0.5,0.5-0.7,0.8c0,0-0.1,0-0.1,0
	c0-0.2,0-0.4,0-0.5c0-0.1-0.2-0.2-0.3-0.2c-0.2,0-0.3,0-0.5,0c-0.3,0-0.7-0.2-0.9,0c-0.5,0.4-0.6-0.1-0.9-0.3
	c-0.2,0.1-0.4,0.2-0.6,0.3c-0.2-0.1-0.4-0.2-0.7-0.4c0,0.1-0.1,0.2-0.2,0.4c-0.4-0.3-0.7-0.6-1-0.9c-0.3,0-0.5-0.1-0.8-0.1
	c-0.4-0.1-0.6-0.9-1.2-0.3c-0.4-1-0.4-1-1.3-0.9c0-0.3,0.1-0.6,0.1-0.9c-0.1,0-0.2,0-0.2,0.1c-0.4-0.2,0.1-0.8-0.2-1.1
	c-0.1,0-0.2,0-0.2,0c-0.1-0.4-0.2-0.7-0.3-1.1c0-0.2,0-0.4,0-0.5c0.1-0.3,0.2-0.6,0.2-0.9c-0.1-0.7,0.2-1.4-0.3-2c0,0,0-0.2,0-0.2
	c0.5-0.3,0.3-0.8,0.3-1.2c0-0.2-0.1-0.5-0.1-0.7c0-0.2,0.1-0.5,0.3-0.6c0.5-0.1,0.6-0.5,0.5-0.9c-0.1-0.6,0.1-0.7,0.6-0.5
	c0.1-0.5,0.1-1,0.2-1.6c0.2,0,0.4,0,0.6,0c0-0.4,0-0.7,0-1.1c0.2,0,0.4,0.1,0.5,0.1c0.3-0.1,0.5-0.3,0.7-0.6
	c0.2-0.2,0.5-0.3,0.4-0.7c0-0.1,0.2-0.3,0.3-0.3c0.5-0.1,0.6-0.4,0.5-0.9c0-0.1,0-0.3,0-0.3c0.3-0.1,0.5-0.1,0.7-0.1
	c0.2-0.1,0.4-0.3,0.6-0.4c0.3-0.2,0.7-0.1,0.6-0.6c0-0.1,0.2-0.3,0.3-0.4c0.1,0,0.2,0.1,0.3,0.2c0-0.3-0.1-0.8,0.5-0.8
	c0.1,0,0.3,0,0.4-0.1c0.5-0.3,1-0.6,0.7-1.5c0.4,0.1,0.6,0.2,0.8,0.2c0.2-0.2,0.3-0.6,0.4-0.6c0.6,0.1,0.7-0.7,1.2-0.6
	c0,0,0.1-0.2,0.1-0.4c0-0.2,0-0.3,0-0.5c0.9,0,0.9,0,1.3-0.4c0,0,0.1,0,0.1-0.1c0.1,0.1,0.2,0.2,0.3,0.3c0.1-0.2,0.3-0.5,0.4-0.5
	c0.4,0.1,0.7-0.1,1.1-0.3c0.7-0.4,1.5-0.5,2.2-0.9c0.5-0.3,1.4-0.4,1.1-1.4c0.6-0.1,0.6,0.2,0.6,0.7c0.2-0.2,0.4-0.3,0.5-0.5
	c0.1-0.1,0.1-0.3,0.1-0.5c0.2,0.1,0.3,0.2,0.4,0.3c0.1,0.1,0.1,0.2,0.2,0.3c0.2-0.5,0.2-1.1,0.9-0.8c0.3-0.8,0.8-0.2,1.2-0.1
	c0.1-0.3,0.2-0.5,0.3-0.9c0.3,0.3,0.5,0.6,0.7,0.8c0.1-0.4,0.2-0.7,0.3-1.1c0.3,0.2,0.5,0.3,0.7,0.4c0-0.5,0.2-0.7,0.6-0.6
	c0.1,0,0.3,0.1,0.3,0c0.3-0.5,0.7-0.4,0.9-0.3c0.3-0.2,0.5-0.3,0.7-0.4c0.2-0.1,0.5-0.1,0.7-0.2c0.3-0.2,0.6-0.3,0.8,0.2
	c0-0.6,0.2-0.7,1-0.4c0.2-0.5,0.5-0.6,1-0.4c0.1-0.5,0.4-0.7,1-0.3c0.1-0.2,0.2-0.4,0.3-0.5c0.3,0.1,0.5,0.1,0.7,0.2
	c0-0.6,0.3-0.5,0.7-0.5c0.2,0,0.4-0.1,0.6-0.1c0-0.1,0-0.2,0-0.2c0.2,0.1,0.4,0.2,0.5,0.3c0.2-0.3,0.4-0.5,0.7-0.8
	c0.2,0.3,0.3,0.5,0.4,0.8c0.1-0.4,0.2-0.6,0.2-0.9c0.3,0.1,0.6,0.1,0.8,0.2c0.1-0.6,0.2-0.6,1-0.1c0.1-0.5,0.2-1.1,0.9-0.6
	c0.2-0.2,0.4-0.4,0.7-0.7c0.1,0.3,0.1,0.5,0.2,0.7c0.1,0,0.1,0,0.2,0c0-0.2,0.1-0.3,0.1-0.5c0-0.1,0.1-0.3,0.2-0.3
	c0.1,0,0.3,0,0.3,0.1c0.1,0.1,0.1,0.3,0.2,0.5c0.1-0.1,0.2-0.2,0.2-0.4c0-0.8,0-0.8,0.7-0.4c0,0,0.1,0,0.2,0c0-0.4,0.2-0.9-0.4-1
	c-0.1,0.2-0.3,0.5-0.3,0.5c-0.7-0.3-1.1,0.7-1.8,0.5c-0.4-0.1-1.1-0.2-1.5,0.4c0,0-0.1,0-0.1-0.1c0.1-0.1,0.1-0.3,0.2-0.5
	c-0.7,0.1-1.5,0.2-2.3,0.2c0-0.2,0-0.3,0-0.5c-0.3,0.4-0.5,0.6-0.7,0.9c-0.2-0.1-0.4-0.3-0.6-0.5c-0.1,0.3-0.2,0.6-0.3,1
	c-0.2-0.3-0.4-0.5-0.6-0.7c-0.6,0-1.4-0.4-2.2,0.3c0-0.4,0-0.6-0.1-0.9c-0.4,0.1-0.8,0.1-1,0.2c-0.2-0.6-0.3-1.2-0.6-1.5
	c-0.2-0.3-0.8-0.4-1.2,0.1c0-0.4,0.1-0.7,0.1-1c-0.4,0.1-0.9,0-1.1,0.2c-0.3,0.2-0.4,0.7-0.6,1.2c-0.2-0.4-0.4-0.8-0.6-1.1
	c-0.8,0.3-1.5,0.8-2.4,0.9c-1,0.2-1.9,0.5-2.9,0.8c-0.2,0.8-0.6-0.1-0.9,0c-0.2,0.3-0.3,0.5-0.5,0.8c-0.2-0.3-0.4-0.5-0.6-0.7
	c-0.2,1-0.3,1-0.9,0.6c-0.1,0.2-0.1,0.4-0.2,0.6c-0.2,0-0.4,0-0.6,0c0-0.2,0-0.3,0-0.5c-0.1,0-0.1-0.1-0.2-0.1
	c-0.2,0.3-0.4,0.6-0.6,1c-0.4-1-1-0.4-1.5-0.4c0.1,0.7,0,0.8-0.6,0.9c0-0.2,0-0.4,0-0.6c-0.9-0.1-1.7,0.7-2.7,0.1
	c0,0.2-0.1,0.4-0.1,0.6c-0.3-0.1-0.6-0.2-0.8-0.3c-0.1,0.1-0.3,0.3-0.4,0.4c-0.1-0.1-0.2-0.3-0.4-0.4c-0.4,0-0.8,0.1-1.3,0.1
	c-0.5,0-1,0-1.5,0c-0.1,0-0.1,0.2-0.2,0.2c-0.1,0.1-0.2,0.1-0.3,0.2c0-0.3-0.1-0.5-0.1-0.7c-0.2,0.1-0.4,0.1-0.5,0.2
	c0,0.2,0,0.4,0,0.6c0,0-0.2,0.1-0.3,0.1c-0.1-0.2-0.1-0.4-0.2-0.7c-0.2,0-0.3,0-0.5,0c-0.2,0-0.7,0-0.7-0.1
	c-0.3-0.6-0.8-0.4-1.2-0.5c0-0.4-0.3-0.6-0.7-0.7c-0.3,0-0.7,0-0.7-0.5c0-0.1-0.4-0.2-0.6-0.3c0-0.5,0-1-0.7-0.9
	c0,0-0.1-0.3-0.1-0.4c0-0.1,0.2-0.2,0.3-0.4c-0.4-0.2-1-0.2-0.8-0.8c-0.3,0-0.6-0.2-0.8-0.1c-0.7,0.3-1.5,0-2.1,0.5
	c-0.1,0-0.2,0.1-0.2,0.1c-0.5-0.4-0.6,0.1-0.9,0.3c-0.2-0.1-0.5-0.2-0.7-0.3c-0.1,0.1-0.1,0.2-0.1,0.3c-1.1,0.3-2.3-0.1-3.3,0.7
	c0-0.1,0-0.2,0-0.5c-0.3,0.1-0.5,0.2-0.8,0.3c-0.5,0.1-1,0.3-1.5,0.3c-0.4,0-0.7-0.1-0.7,0.4c-0.3-0.4-0.8-0.4-0.9-0.1
	c-0.1,0.1-0.2,0.2-0.2,0.3c-0.1-0.1-0.1-0.3-0.2-0.4c-0.2,0-0.4,0.1-0.5,0.1c0,0.2,0,0.4,0,0.7c-0.1,0-0.3-0.1-0.4-0.1
	c-0.1-0.5-0.5-0.4-0.8-0.4c-0.9,0.1-1.7,0.6-2.7,0.4c-0.1,0-0.1,0.1-0.2,0.1c-0.4,0.1-0.8,0.2-1.3,0.3c0,0-0.3,0.2-0.3,0.2
	c-0.3-0.3-0.5-0.1-0.7,0.1c-0.1,0.1-0.2,0.1-0.4,0.1c-0.5,0-1,0-1.5,0.1c0,0.4,0,0.6,0,0.9c-0.1,0-0.1,0-0.2,0.1
	c-0.1-0.2-0.3-0.4-0.4-0.5c-0.1,0-0.2-0.1-0.4-0.1c-0.7,0.1-1.5,0.2-2.2,0.3c0,0,0,0,0,0c-0.4,0.4-0.5,0.1-0.6-0.3
	c-0.4,0.1-0.5,0.9-1.1,0.4c-0.2,0.2-0.4,0.4-0.5,0.7c-0.8-1.2-0.7,0.1-1,0.4c-0.1-0.2-0.2-0.4-0.3-0.5c-0.3,0.1-0.6,0.2-0.9,0.3
	c-0.2,0-0.5-0.2-0.6-0.1c-0.6,0.5-1.3,0.1-2.1,0.3c0,0-0.1,0.2-0.2,0.3c-0.1,0.1-0.3,0-0.4,0c-0.2-0.1-0.3-0.2-0.4-0.3
	c-0.1,0.2-0.2,0.3-0.4,0.5c-0.5-0.4-0.7-0.1-0.9,0.4c-0.1-0.1-0.1-0.1-0.2-0.1c-0.2-0.1-0.4-0.2-0.6-0.4c0,0.2,0,0.4,0,0.5
	c-0.1,0.1-0.4,0.3-0.4,0.3c-0.4-0.4-0.6-0.3-0.6,0.2c0,0-0.1,0.1-0.1,0.1c-0.7,0.2-0.6,0.8-0.6,1.3c-0.2-0.1-0.4-0.2-0.5-0.3
	c-0.4,0.3-0.7,0.7-1.2,1.1c0,0.2,0,0.5,0,0.8c0,0-0.1,0.1-0.1,0.1c-0.1-0.1-0.3-0.3-0.4-0.4c-0.3,0.3-0.7,0.6-1,0.9
	c-0.2,0.2-0.3,0.6-0.5,0.8c-0.4,0.3-0.9,0.7-1.4,1.1c0,0.2,0,0.5,0,0.8c-0.2-0.1-0.4-0.2-0.6-0.3c-0.4,0.6-0.9,1.2-1.3,1.8
	c-0.1-0.2-0.1-0.3-0.2-0.4c-0.3,0.3-0.5,0.7-0.8,1c-0.3,0.2-0.4,0.3-0.3,0.7c0,0.2-0.1,0.4-0.2,0.8c-0.2-0.3-0.3-0.4-0.3-0.5
	c0,0-1.3,1.7-1.3,1.7c-0.1-0.2-0.2-0.3-0.3-0.6c-0.1,0.4-0.2,0.7-0.3,1c0,0-0.1-0.1-0.1-0.1c-0.3,0.2-0.7,0.5-1,0.7
	c0.1,0.3,0.1,0.5,0.2,0.7c-0.1,0-0.1,0-0.2,0.1c-0.2-0.1-0.4-0.3-0.5-0.4c-0.8,0.9-1.6,1.8-2.4,2.7c0,0,0-0.1,0-0.2c0,0-0.1,0-0.1,0
	c-0.1,0.4-0.1,0.7-0.2,1.2c-0.2-0.2-0.3-0.4-0.4-0.5c-0.1,0.8-1.4,0.9-1,2.1c-0.9-0.5-1.1,0.4-1.7,0.6c-0.1,0-0.1,0.6-0.1,1
	c-0.2-0.1-0.4-0.2-0.5-0.3c-0.6,0.8-1.3,1.6-1.9,2.5c0,0.2,0.2,0.5,0.1,0.6c-0.2,0.2-0.6,0.2-0.7,0.5c-0.1,0.2-0.1,0.3-0.2,0.5
	c0,0.1,0.1,0.1,0.2,0.2c-0.1,0-0.2,0.2-0.2,0.1c-0.4-0.3-0.5-0.2-0.7,0.2c-0.1,0.3-0.4,0.4-0.6,0.7c-0.1,0.2,0,0.4,0,0.7
	c-0.3-0.1-0.5-0.2-0.7-0.3c-0.2,0.5-0.6,0.7-1,0.5c-0.3,0.2-0.7,0.3-0.9,0.6c-0.3,0.5-1.2,0.5-1.1,1.4c0,0-0.2,0.1-0.2,0.1
	c-0.3-0.1-0.5-0.3-0.7-0.3c-0.1,0-0.2,0.3-0.3,0.5c-0.6,0-0.9,0-1.2,0.5c-0.1-0.2-0.3-0.4-0.4-0.6c-0.5-0.6-1,0.1-1.5,0.1
	c-0.4,0-0.6,0.1-0.8-0.3c-0.1-0.1-0.3-0.1-0.4-0.2c-0.2-0.1-0.4-0.2-0.6-0.3c0.3-0.3,0.7-0.6,0.7-1c0.1-0.4,0.1-0.7,0.5-0.9
	c0.3-0.2,0.6-0.4,0.8-0.5c0.1-0.3,0.2-0.7,0.3-0.9c0.2-0.2,0.6-0.4,0.9-0.6c0.6-0.2,0.4-0.6,0.4-1c0.1-0.4,0.9-0.3,0.7-0.9
	c0,0,0,0,0-0.1c0.1-0.2,0.2-0.4,0.4-0.7c0.2,0.4,0.4,0.7,0.6,1.1c0-0.5,0-0.9,0.1-1.1c0.4-0.2,0.7-0.4,0.9-0.5
	c0.3-0.2,0.6-0.3,1-0.5c-0.3-0.2-0.6-0.5-0.1-0.8c0.4-0.3,0.7-0.6,0.7-1.1c0-0.1,0.2-0.3,0.3-0.3c0.6-0.1,0.9-0.6,1.2-1
	c0.1-0.2,0.2-0.4,0.3-0.6c0.1,0.1,0.3,0.2,0.4,0.3c0.1-0.2,0.1-0.4,0.2-0.6c0-0.1,0.1-0.1,0.1-0.1c0.4-0.1,0.5-0.1,0.5-0.5
	c0-0.4,0.2-0.5,0.5-0.8c0.5-0.3,1.2-0.5,1.3-1.3c0-0.1,0.1-0.2,0.2-0.2c0.6-0.2,0.7-0.6,0.6-1.2c0.5,0,1,0.2,1.2-0.5
	c0.2-0.4,0.5-0.8,0.8-1.3c0.1,0,0.2,0.1,0.3,0.2c0.2-0.3,0.5-0.6,0.7-0.9c0.2-0.3,0.4-0.8,0.8-1c0.5-0.3,0.5-0.8,0.8-1.1
	c0.1-0.1,0.1-0.3,0.1-0.4c0-0.3,0-0.5-0.1-0.8c0.3,0,0.4-0.1,0.6-0.1c0.1,0.2,0.1,0.4,0.2,0.6c0-0.8,0.3-1.1,0.9-1
	c0.1-0.2,0.2-0.4,0.3-0.5c-0.1-0.2-0.3-0.4-0.3-0.5c0-0.1,0.2-0.2,0.2-0.2c0.2,0.2,0.5,0.4,0.7,0.5c-0.2-0.7,0-0.9,0.7-0.9
	c0-0.2,0-0.5,0.1-0.7c0-0.2,0.1-0.3,0.2-0.5c0.1,0.2,0.2,0.3,0.3,0.5c0.1-0.1,0.1-0.2,0.2-0.2c0.3-0.3,0.2-0.9,0.9-0.7
	c0,0,0.3-0.4,0.2-0.5c-0.3-0.5-0.2-0.8,0.4-1c-0.4,0-0.8,0-1.2,0c-0.3,0-0.6,0-1.1,0.1c-0.1,0.1-0.3,0.2-0.7,0.5c0-0.4,0-0.5,0-0.7
	c-0.9-0.3-1-0.3-1.7,0.1c-0.2,0.1-0.5,0.3-0.6-0.1c0-0.1-0.2-0.1-0.3-0.2c-0.3-0.1-0.6-0.1-1-0.2c-0.2-0.1-0.3-0.2-0.5,0.1
	c-0.2,0.3-0.4,0.1-0.5-0.2c-0.2-0.4-0.5-0.8-0.8-1.2c0-0.1-0.2-0.1-0.3-0.1c-0.2,0-0.3,0-0.5-0.1c0-0.1-0.1-0.1-0.1-0.2
	c0.3-0.2,0.5-0.4,0.7-0.5c-0.1-0.3-0.2-0.5-0.3-0.8c-0.2-0.7,0-1.5-0.3-2.2c0.3-0.1,0.8-0.2,0.9-0.4c0.1-0.2-0.1-0.6-0.2-1
	c0.3,0,0.5,0,0.9,0.1c-0.1-0.5-0.2-1-0.3-1.4c0.4,0,0.7,0,1-0.1c-0.1-0.3-0.1-0.6-0.2-0.8c0-0.1,0-0.3,0.1-0.3
	c0.3-0.1,0.5-0.3,0.7-0.6c-0.2-0.3-0.5-0.5,0-0.9c0,0,0-0.2-0.1-0.2c-0.2-0.1-0.4-0.1-0.5-0.1c0-1.2-0.1-1.6-0.8-2.3
	c-0.1,0.2-0.1,0.4-0.3,0.7c-0.2-0.3-0.3-0.5-0.4-0.7c-0.1,0-0.3,0.1-0.4,0.1c0,0.2-0.1,0.5-0.1,0.8c-0.2-0.2-0.4-0.3-0.5-0.4
	c-0.2,0.3-0.3,0.7-0.5,1c-0.1,0-0.3,0-0.4-0.1c-0.2,0.4-0.2,0.7-0.4,0.9c-0.2,0.1-0.5,0-0.8,0c-0.1,0.2-0.2,0.5-0.4,0.6
	c-0.3,0.2-0.7,0.3-1.1,0.5c-0.2,0.1-0.5,0.2-0.4,0.6c0,0.1-0.1,0.3-0.2,0.6c-0.2-0.4-0.3-0.6-0.4-0.9c-0.1,0-0.1,0-0.2,0.1
	c0,0.3,0,0.6,0,0.7c-0.7,0.4-1.3,0.7-1.9,1.1c-0.1,0-0.1,0.1-0.1,0.2c0.1,0.5,0,0.7-0.5,0.3c-0.1,0-0.2,0-0.2,0
	c-0.1,0.2-0.1,0.5-0.2,0.5c-0.3,0-0.6-0.1-0.9-0.2c-0.1,0.2-0.2,0.4-0.2,0.6c-0.4,0.2-0.9,0.3-1.1,0.6c-0.3,0.3-0.4,0.8-0.5,1.3
	c-0.2-0.2-0.3-0.3-0.4-0.4c-0.2,0.2-0.4,0.4-0.6,0.7c-0.4-0.3-0.6,0.3-0.9,0.3c-0.9-0.1-1,0.9-1.7,1c-0.3,0-0.5,0.3-0.8,0.4
	c0,0.1,0,0.3-0.1,0.6c-0.2-0.1-0.4-0.2-0.6-0.3c0,1.1-0.7,0.2-1.1,0.4c-0.1,0.2-0.1,0.4-0.1,0.5c-0.3,0-0.7-0.1-0.8,0
	c-0.3,0.4-0.6,0.3-1,0c0,0.3-0.1,0.4-0.1,0.6c-0.3,0.1-0.6,0.1-0.9,0.2c-0.6,0.2-1.2,0.5-1.9,0.8c0,0-0.1,0.1,0,0.3
	c0.2,0.6,0.2,0.6-0.5,0.6c0-0.2,0.1-0.4,0.1-0.6c-1,0.1-1.6,0.4-1.6,1.4c-0.3-0.3-0.5-0.5-0.7-0.7c-0.2,0.3-0.4,0.6-0.6,0.9
	c-0.3-0.4-0.5-0.4-0.7,0c-0.1,0.1-0.3,0.2-0.4,0.2c-0.5-0.2-0.5-0.2-0.6,0.3c0,0.1-0.1,0.1-0.1,0.1c-0.2-0.2-0.4-0.3-0.6-0.4
	c-0.2,0.4-0.3,0.6-0.5,1c-0.2-0.4-0.3-0.6-0.4-0.9c-0.2,0.4-0.3,0.7-0.5,1c-0.5-0.5-0.5-0.5-1.1,0.5c-0.4-1-1.1-0.4-1.8-0.5
	c0,0.2,0.1,0.4,0,0.6c0,0.1-0.2,0.2-0.3,0.2c0,0-0.1-0.1-0.2-0.2c-0.1-0.1-0.2-0.3-0.3-0.3c-0.4-0.2-1.1,0.2-1.3,0.5
	c-1.3-0.1-2.4,0.4-3.5,0.7c-0.1-0.2-0.2-0.5-0.3-0.5c-0.8-0.1-0.2,0.7-0.6,1c-0.1-0.3-0.1-0.5-0.2-0.7c-0.7-0.1-1.3-0.2-1.7-0.3
	c-0.2,0.1-0.4,0.2-0.5,0.3c-0.3-0.6-0.8-0.5-1.3-0.4c-0.1,0-0.2-0.2-0.4-0.3c-0.2,0-0.4,0-0.6,0c-0.1,0-0.2,0.2-0.3,0.3
	c-0.2-0.5-0.4-0.8-0.6-1.2c-0.2-0.7-0.8,0-1.1-0.4c-0.3-0.7-0.6-1.4-0.9-2c-0.2,0.1-0.3,0.2-0.4,0.3c0,0-0.2-0.1-0.2-0.1
	c0.1-0.3,0.2-0.5,0.3-0.8c-0.2,0-0.6,0-0.6-0.2c-0.1-0.2,0-0.6,0-0.8c-0.3-0.2-0.6-0.3-0.9-0.5c0,0.2,0,0.4,0,0.6
	c-0.4,0-0.7,0-1.1,0c0,0.2-0.1,0.3-0.1,0.5c-0.5-0.3-0.8-0.3-1,0.3c-0.3-0.1-0.5-0.2-0.7-0.3c0,0.1,0,0.1,0.1,0.2
	c-0.9,0.5-1.9,1-2.9,1.5c0,0.1,0,0.3,0,0.5c0,0.1-0.1,0.2-0.1,0.3c-0.1-0.1-0.2-0.1-0.3-0.2c-0.1-0.1-0.2-0.2-0.4-0.4
	c-0.1,0.3-0.1,0.5-0.2,0.7c0,0-0.1-0.1-0.1-0.1c-0.1,0.1-0.2,0.1-0.2,0.1c-0.2-0.1-0.4-0.2-0.7-0.3c0,0.4,0,0.6-0.1,0.9
	c-0.3-0.1-0.6-0.1-0.8-0.2c0,0,0.1,0.1,0.1,0.1c-0.2,0.1-0.4,0.4-0.6,0.4c-0.9-0.2-1.3,0.6-2,0.8c-0.4,0.1-0.8,0.3-1.3,0.5
	c-0.4,0.2-0.9,0.1-1.3,0.3c-0.8,0.2-1.6,0.5-2.4,0.8c-0.1,0-0.3,0.1-0.3,0.1c-0.4,0.3-0.7,0.2-1.1,0c-0.5,0.7-1.4,0.9-2,0.4
	c0.1,0.7-0.5,0.6-0.9,0.7c-0.7,0.2-1.3,0.4-2.1,0.6c-0.1,0.1-0.4,0.2-0.7,0.3c-0.1-0.2-0.2-0.4-0.3-0.6c-0.2,0.3-0.3,0.6-0.5,0.8
	c-0.1,0-0.2,0-0.2-0.1c-0.2-0.4-0.4-0.6-0.9-0.3c-0.1,0.1-0.4,0-0.6-0.1c-0.2,0-0.4,0-0.6-0.1c-0.2,0-0.5-0.1-0.7-0.2
	c-0.1,0.2-0.2,0.4-0.3,0.7c-0.1,0-0.1,0-0.2,0c0-0.2,0-0.4,0-0.8c-0.4,0-0.9,0.1-1.4,0.1c-0.6-0.3-1.2-0.5-1.8-0.8
	c-0.1,0.1-0.2,0.2-0.3,0.3c-0.3-0.3-0.6-0.6-0.9-1c-0.2-0.3-0.3-0.6-0.7-0.4c-0.1,0-0.3-0.2-0.3-0.2c0.1-0.4-0.2-0.5-0.4-0.8
	c-0.3-0.5-0.5-1-1.3-0.6c0.1-0.4,0.2-0.6,0.2-0.7c-0.3-0.3-0.6-0.5-0.6-0.7c0-0.8-0.5-1.2-1-1.7c0.1-0.4,0.2-0.8-0.5-0.6
	c-0.1,0-0.3-0.1-0.3-0.2c0-0.1,0-0.3,0.1-0.4c0.1-0.1,0.2-0.3,0.4-0.5c-0.3-0.1-0.6-0.1-0.9-0.2c0.3-0.3,0.5-0.6,0.7-0.9
	c0,0-0.1-0.1-0.1-0.1c-0.1,0-0.2,0.1-0.4,0.1c0-0.2,0.1-0.4,0.1-0.6c0-0.6,0.4-1.2-0.1-1.7c0,0,0.2-0.3,0.3-0.4
	c0.1-0.1,0.2-0.3,0.3-0.4c0,0-0.1-0.1-0.1-0.1c-0.3,0-0.5,0.1-0.8,0.1c0-0.1,0-0.2,0-0.2c0.1-0.1,0.1-0.2,0.2-0.3
	c0.7-0.5,0.7-0.6,0.3-1c0.1-0.3,0.2-0.5,0.3-0.6c-0.3-0.1-0.5-0.2-0.8-0.3c0.2-0.2,0.3-0.4,0.5-0.5c0.5-0.1,0.6-0.5,0.5-0.8
	c-0.1-0.4,0.7-0.9,0-1.3c0.1-0.1,0.2-0.2,0.3-0.3c0.2-0.2,0.4-0.3,0.1-0.6c-0.1-0.1-0.1-0.7,0.1-0.7c0.6-0.3,0.4-0.7,0.3-1
	c1-0.7,0.4-1.7,0.7-2.5c0.9-0.1,0.2-1.1,0.7-1.4c0.6-0.3,0.2-1.1,0.6-1.4c0.6-0.4,0-1.1,0.6-1.5c0.1,0,0.2,0,0.3,0
	c0.1-0.3,0.1-0.6,0.2-0.9c0.1-0.3,0-0.5-0.1-0.8c0-0.1,0.2-0.4,0.3-0.4c0.4-0.1,0.6-0.4,0.5-0.7c-0.1-0.1,0-0.3,0-0.5
	c0.2,0,0.3,0.1,0.5,0.1c0.1-0.2,0.3-0.3,0.3-0.5c0-0.2-0.2-0.4-0.2-0.6c0-0.1,0.1-0.2,0.3-0.5c0.1,0.3,0.2,0.5,0.2,0.6
	c0.1,0,0.1-0.1,0.2-0.1c0-0.5-0.1-1-0.1-1.4c0-0.1,0.2-0.3,0.4-0.3c0.5-0.1,0.6-0.4,0.5-0.8c-0.2-0.4,0.1-0.5,0.3-0.7
	c0.2-0.1,0.4-0.3,0.6-0.5c0,0-0.1-0.1-0.1-0.1c-0.1,0-0.3,0-0.4,0c0-0.1-0.1-0.1-0.1-0.2c0.2-0.1,0.4-0.2,0.6-0.4
	c0.2-0.1,0.4-0.2,0.5-0.4c0.1-0.1,0.2-0.3-0.2-0.4c-0.1,0-0.1-0.3-0.1-0.5c0,0,0.1-0.1,0.1-0.1c0.2,0.2,0.3,0.4,0.5,0.5
	c0.1-0.4,0.3-0.8,0.4-1.3c0.7,0.2,0.4-0.5,0.6-0.8c0.2,0,0.3,0,0.6,0c-0.3-1,0.4-1.5,1-1.8c-0.1-0.3-0.3-0.5-0.3-0.6
	c0.6-0.5,0.3,0.4,0.6,0.3c0.1,0,0.3-0.1,0.4-0.1c0-0.1,0-0.2,0-0.2c0-0.5,0-0.8,0.6-0.8c0.3,0,0.5-0.3,0.3-0.6
	c-0.1-0.2-0.1-0.3-0.2-0.5c0.1,0,0.1-0.1,0.2-0.1c0.2,0.2,0.4,0.4,0.6,0.6c0.3-0.5,0.7-1.2,1-1.8c0.1-0.2,0.4-0.3,0.6-0.5
	c0.1-0.1,0.1-0.4,0-0.5c0-0.1-0.2-0.3-0.3-0.4c0.5-0.2,0.7-0.2,0.7,0.2c0.4-0.3,0.7-0.8,1.2-1c0.6-0.2,0.8-0.8,1.1-1.2
	c0.2-0.2,0.3-0.5,0.4-0.7c0.1-0.3,0.2-0.5,0.3-0.8c0.1,0,0.1,0,0.2,0c0.1,0.2,0.2,0.4,0.2,0.6c0.1-0.7,0.3-1.1,1-1.2
	c0.1-0.4,0.2-0.6,0.2-0.9c0.2,0.1,0.3,0.3,0.4,0.3c0.2-0.2,0.4-0.5,0.6-0.7c0.2-0.3,0.6-0.4,0.5-0.9c0-0.1,0.1-0.2,0.1-0.4
	c0.3,0.1,0.5,0.3,0.8,0.4c-0.2-0.6,0.3-0.7,0.7-0.8c0-0.3,0-0.5,0-0.8c0-0.1,0.2-0.2,0.2-0.4c0.1,0.1,0.2,0.2,0.3,0.3
	c0.1,0.1,0.3,0.2,0.4,0.3c0-0.2,0.1-0.4,0.1-0.5c0-0.2,0-0.4,0-0.6c0.2,0.2,0.4,0.3,0.6,0.4c0-0.8,1.4-0.7,0.8-1.9
	c0.3,0,0.6,0.1,0.6,0.1c0.6-0.4,1.1-0.8,1.6-1.1c0,0-0.1-0.1-0.1-0.1c0.2,0,0.4,0,0.6,0c0-0.3,0-0.5,0-0.7c0-0.1,0.2-0.3,0.2-0.3
	c0.7,0.1,0.8-0.4,0.9-0.8c0.2,0,0.5,0.1,0.6,0.1c0-0.3-0.1-0.6-0.1-1c0.4,0.2,0.6,0.4,0.8,0.5c0.2-0.3,0.3-0.6,0.5-0.8
	c0.4-0.3,0.9-0.4,1.4-0.6c0.1,0,0.1-0.2,0.2-0.3c-0.5-0.2-0.2-0.5,0-0.9c0.2,0.4,0.4,0.7,0.6,1.1c0-0.2,0-0.2,0-0.3
	c0-0.4,0-0.8,0.5-1c0.3-0.1,0.8,0,0.9-0.6c0.1-0.3,0.3-0.6,0.5-1c0.4,0.2,0.7,0.1,1.1-0.2c0.3-0.3,0.6-0.5,0.9-0.8
	c0,0,0.1,0.1,0.1,0.1c0.2-0.3,0.4-0.6,0.6-0.9c0.2,0.2,0.5,0.3,0.8,0.6c0-0.4-0.2-0.7-0.1-0.8c0.4-0.5,0.5,0,0.8,0.2
	c0.2-0.2,0.3-0.5,0.5-0.7c0,0.1,0.1,0.1,0.1,0.2c0.2-0.1,0.4-0.1,0.6-0.2c0.3-0.2,0.6-0.5,0.9-0.8c0-0.1-0.1-0.4,0-0.5
	c0.2-0.2,0.4-0.1,0.4,0.2c0.1,0,0.4-0.1,0.4-0.2c0.1-0.1,0-0.4,0.1-0.6c0.3,0.1,0.5,0.1,0.8,0.2c0.1-0.7,0.6-0.5,1.1-0.3
	c-0.1-0.6,0.2-0.5,0.5-0.5c0.5,0,1.1,0.1,1.3-0.2c0.5-0.5,1-0.6,1.5-0.6c0.3-0.3,0.4-0.4,0.6-0.5c-0.1-0.2-0.2-0.4-0.4-0.7
	c0.3,0.1,0.4,0.1,0.5,0.2c0.1,0.1,0.2,0.3,0.3,0.4c0.1,0,0.2,0,0.3,0c0-0.1,0-0.2,0-0.2c0-0.2-0.1-0.4,0-0.5
	c0.1-0.1,0.4-0.1,0.6-0.2c0,0.3,0,0.5-0.1,0.7c0.5-0.2,0-1.1,0.9-0.9c0.1,0.2,0.1,0.4,0.2,0.7c0.2-0.4,0.4-0.7,0.6-0.9
	c0.2,0.2,0.3,0.3,0.5,0.4c0-0.3,0-0.6,0.1-0.9c0.3,0.2,0.6,0.3,0.8,0.4c0.2-0.2,0.4-0.5,0.7-0.7c0.1,0.1,0.3,0.2,0.4,0.4
	c0.1-0.8,0.5-0.6,1-0.3c0.1-0.7,0.4-0.8,1-0.2c-0.1-0.5,0-0.8,0.5-0.7c0.2,0.2,0.3,0.4,0.4,0.4c0.3,0,0.3-0.2,0.3-0.5
	c0-0.1,0.2-0.2,0.4-0.3c0.1,0.2,0.1,0.4,0.3,0.7c0.3-0.4,0.4-0.7,0.7-1.1c0.1,0.3,0.1,0.5,0.2,0.7c0.2,0,0.5,0,0.5-0.1
	c0.1-0.2,0-0.5,0-0.7c0,0,0.1-0.1,0.1-0.1c0.2,0.2,0.4,0.4,0.7,0.7c0.2,0,0.5-0.1,0.9-0.2c0.8-0.3,1.8,0,2.6-0.6
	c0.2-0.1,0.5,0,0.7-0.1c0.1,0,0.2,0,0.2-0.1c0.1-0.1,0.3-0.2,0.4-0.3c0.1,0.2,0.1,0.3,0.2,0.5c0.2-0.3,0.4-0.6,0.6-0.8
	c0.6-0.4,0.5,0.2,0.7,0.5c0.2,0,0.3-0.1,0.4-0.1c0.9,0.3,1.5,0,1.9-0.7C209,154.6,209.1,154.6,209.2,154.6z M308.3,238.8
	c0.1-0.4,0.2-0.7,0.4-1c0-0.1,0.1-0.2,0.2-0.3c0.3-0.3,0.7-0.6,0.7-1c0.1-0.6,0.3-0.9,0.7-0.9c0.1-0.4,0.1-0.7,0.1-1
	c0.2,0,0.4,0.1,0.6,0.1c0.1-0.3,0.1-0.6,0.2-1c0.1,0.1,0.2,0.2,0.2,0.2c0.7-0.6,0.5-1.3,0-2.1c0.4,0.1,0.7,0.2,1.2,0.3
	c-0.1-0.5-0.3-0.9-0.4-1.4c0.1,0,0.2-0.1,0.4-0.1c0.6-0.1,1.1-0.6,1.1-1.2c0-0.2,0.2-0.5,0.4-0.5c0.4,0,0.4-0.3,0.4-0.6
	c-0.1-0.5,0-0.8,0.6-0.8c0-0.4,0-0.7,0-1c0.6-0.2,0.7-0.5,0.8-1.1c0-0.1,0.1-0.3,0.3-0.4c0.2-0.2,0.4-0.2,0.6-0.3
	c-0.1-0.2-0.2-0.4-0.3-0.5c0.3-0.4,0.5-0.7,0.7-1c0,0-0.1-0.1-0.1-0.1c-0.3,0.1-0.6,0.3-0.9,0.4c0-0.3-0.1-0.5-0.1-0.8
	c-0.3,0.1-0.6,0.3-0.8,0.3c-0.5,0.1-1.1,0.1-1.6,0.4c-0.6,0.3-1.2,0.3-1.7,0.5c-0.9,0.3-1.9,0.4-2.7,1c-0.2,0.1-0.4,0.2-0.6,0.3
	c0,0.1,0,0.1,0.1,0.2c-0.3,0-0.6-0.1-0.9-0.1c0.1,0.2,0.2,0.4,0.2,0.6c0,0.1-0.2,0.3-0.2,0.3c-0.2,0-0.3-0.1-0.6-0.3
	c-0.1,0.1-0.3,0.3-0.5,0.5c0-0.1,0-0.3-0.1-0.5c-0.2,0.2-0.4,0.5-0.6,0.7c-0.1,0.1-0.3,0.3-0.4,0.3c-0.2,0-0.3-0.2-0.5-0.4
	c-0.1,0.2-0.3,0.4-0.5,0.6c-0.1-0.1-0.2-0.2-0.4-0.3c-0.2,0.4-0.2,1.1-0.7,0.8c-0.3,0.2-0.6,0.5-0.8,0.4c-0.6-0.2-0.9,0.3-1.3,0.5
	c-0.7,0.3-1.4,0.6-2.1,1c0,0.2-0.1,0.4-0.1,0.8c-0.1-0.3-0.2-0.4-0.3-0.4c-0.1-0.1-0.4-0.1-0.4,0c-0.2,0.2-0.3,0.5-0.4,0.7
	c-0.2-0.1-0.3-0.3-0.5-0.4c0,0.3-0.1,0.5-0.1,0.7c-0.8,0.1-1.6,0.3-2,1.1c-0.1-0.1-0.3-0.3-0.5-0.5c0,0.4,0,0.6-0.1,0.8
	c0,0.1-0.2,0.4-0.2,0.4c-0.4-0.1-0.6,0.2-0.8,0.5c-0.5,0.6-1.1,1.2-1.3,2.1c-0.1-0.1-0.1-0.2-0.2-0.4c0,0.4,0,0.7,0,0.9
	c-0.3,0.1-0.5,0.1-0.7,0.2c0,0.4,0,0.7-0.1,1.2c-0.2-0.1-0.4-0.2-0.4-0.2c-0.6,0.4-0.1,1-0.2,1.5c-0.7,0.1-0.9,0.4-0.8,1.2
	c-0.1,0.2-0.2,0.5-0.3,0.7c0-0.1-0.1-0.2-0.2-0.4c0,0.3,0.1,0.6,0,0.7c-0.2,0.4-0.2,0.7,0.1,0.9c0,0-0.1,0.2-0.1,0.3
	c-0.1,0.4-0.4,0.8-0.4,1.2c0,0.4,0.5,0.8,0.5,1.2c0,0.7,0.4,1.1,0.8,1.5c0.2-0.1,0.3-0.1,0.5-0.1c0,0.1,0,0.3,0.1,0.4
	c0.1,0.4,0.2,0.8,0.4,1.1c0.5,0.6,1.2,1.1,1.8,1.6c0,0,0.1,0.1,0.2,0.1c0.3,0,0.5-0.1,0.8-0.1c0.5,0,1-0.1,1.4-0.1
	c0.3-0.2,0.7-0.4,1-0.5c0.3-0.1,0.7-0.2,1-0.4c0.3-0.1,0.5-0.3,0.9-0.5c0,0,0-0.1,0-0.1c0.8-0.1,1-0.5,1-1.3
	c0.2,0.3,0.4,0.5,0.6,0.7c0.2-0.3,0.4-0.6,0.6-1c0.1,0.3,0.2,0.5,0.2,0.7c0-0.7,0.5-0.8,0.9-0.8c0.3,0,0.4,0,0.6-0.2
	c0.1-0.1,0.2-0.1,0.3-0.2c0.1-0.1,0.3-0.2,0.3-0.4c0.1-0.3,0-0.6,0-1.1c0.4,0.3,0.7,0.4,1,0.6c-0.1-0.3-0.4-0.5,0.2-0.7
	c0.3-0.1,0.8-0.4,0.5-1c-0.1-0.1,0.1-0.3,0.1-0.6c0.2,0.3,0.3,0.5,0.4,0.6c0.3-0.3,0.6-0.7,0.8-1c0.1-0.2,0.4-0.2,0.2-0.5
	c-0.1-0.1,0.1-0.4,0.2-0.4c0.6-0.1,0.5-0.5,0.5-0.9c0-0.2,0-0.3,0-0.5c0.3,0,0.4,0.1,0.7,0.1c0-0.2,0-0.4,0.1-0.7
	C308.2,238.4,308.2,238.5,308.3,238.8z M300.7,206.2c0.2-0.2,0.4-0.4,0.7-0.5c0.3-0.2,0.5-0.4,0.4-0.8c0-0.2,0-0.4,0.2-0.5
	c0.7-0.6,0.7-1.3,0.2-1.7c-0.2,0.2-0.5,0.4-0.7,0.6c-0.2-0.3-0.3-0.5-0.3-0.6c0-0.2,0-0.4,0-0.6c-0.3,0.1-0.5,0.1-0.8,0.2
	c-0.1,0-0.2,0.2-0.3,0.2c0-0.1,0-0.1-0.1-0.2c-0.5,0.1-1,0.2-1.6,0.3c0,0.1-0.1,0.3-0.3,0.6c-0.2-0.2-0.3-0.3-0.4-0.4
	c-0.1,0-0.3,0-0.3,0.1c-0.1,0.1-0.1,0.2-0.2,0.3c-0.1-0.1-0.2-0.2-0.3-0.3c-0.2,0.1-0.3,0.2-0.5,0.3c-0.1,0.1-0.2,0.4-0.3,0.5
	c-0.1-0.2-0.1-0.4-0.2-0.5c0,0-0.1,0-0.1-0.1c-0.1,0.1-0.2,0.2-0.3,0.4c-0.1,0.1-0.2,0.3-0.2,0.3c-0.1,0-0.3-0.1-0.4-0.2
	c0,0.1-0.1,0.2-0.2,0.3c-0.1-0.1-0.2-0.2-0.3-0.3c0.1,0.6,0.1,0.6-0.5,0.5c-0.1,0-0.3,0.1-0.4,0.2c-0.2,0.2-0.3,0.5-0.6,0.6
	c-0.9,0.4-1.3,1.3-2,1.9c0.7,0.5-0.4,0.6-0.1,1c-0.1-0.1-0.1-0.1-0.1-0.1c-0.2,0.6-0.3,1.2-0.5,1.8c0.4-0.2,0.7-0.5,0.8,0.2
	c0,0.1,0.4,0.3,0.6,0.3c0.5-0.1,1-0.2,1.5-0.4c0.5-0.1,1-0.3,1.5-0.5c0.6-0.2,1.2-0.3,1.7-0.5c0.2-0.1,0.5-0.2,0.7-0.3
	c0.4-0.2,0.9-0.3,1.3-0.5c0.4-0.2,0.8-0.4,1.2-0.7c0.3-0.1,0.5-0.2,0.8-0.3c0-0.3,0-0.6,0.2-0.8
	C300.2,206.2,300.5,206.2,300.7,206.2z M325.1,205.8c-0.2,0-0.4-0.1-0.5-0.1c-0.2,0.4-0.3,0.7-0.5,1.1c-0.2-0.3-0.3-0.6-0.5-0.8
	c-0.2,0.3-0.4,0.4-0.8,0.4c-0.2,0-0.4,0.5-0.6,0.8c-0.2-0.1-0.4-0.2-0.7-0.4c0.3,0.5-0.2,0.4-0.4,0.5c-0.3,0.2-0.6,0.3-1.1,0.5
	c-0.7-0.3-0.9,0.8-1.5,1c0.1,0.1,0.2,0.3,0.3,0.4c-0.2,0.1-0.3,0.1-0.5,0.2c-0.2,0.1-0.3,0.2-0.5,0.4c0,0,0,0.3,0,0.3
	c0.6,0.3,0.1,0.6-0.1,0.8c-0.1,0.2-0.3,0.3-0.5,0.4c0.1,0.1,0,0,0,0c0,0-0.1,0-0.2-0.1c0,1-0.7,2,0,2.9c0.1,0,0.3,0.1,0.4,0.1
	c0.2,0.1,0.4,0.3,0.5,0.3c0.4-0.1,0.7-0.4,1.1-0.4c0.9-0.2,1.3-0.6,1.3-1.4c0.2,0,0.4-0.1,0.5-0.1c0.1,0.1,0.2,0.2,0.2,0.4
	c0.1-0.1,0.2-0.1,0.2-0.2c0-0.6,0.6-0.5,1-0.8c-0.1-0.3-0.2-0.6-0.3-1c0.3,0.1,0.5,0.1,0.6,0.1c0,0.3-0.1,0.5-0.1,0.7
	c0.2-0.2,0.4-0.4,0.5-0.6c0.1-0.7,0.2-0.7,0.8-0.4c0.2-0.2,0.3-0.5,0.5-0.6c0.7-0.2,1.3-0.5,1.4-1.3c0-0.1,0.1-0.1,0.1-0.2
	c0.8-0.3,1.4-0.9,1.7-1.7c0.3-0.1,0.6-0.1,0.7-0.2c0.3-0.3,0.6-0.6,0.9-0.9c-0.4-0.2-0.3-0.4,0.1-0.6c0.3-0.1,0.5-0.3,0.7-0.4
	c-0.1-0.3-0.1-0.7-0.2-1c-0.2,0.1-0.3,0.2-0.5,0.3c0,0.3,0.1,0.8-0.5,0.6c0-0.3,0.1-0.6,0.1-1c-0.8,0.4-1.5,0.6-2.1,1
	c-0.2,0.1-0.8,0.2-0.5,0.8c0,0-0.2,0.1-0.3,0.2c0,0-0.1,0-0.1-0.1c0-0.2,0.1-0.3,0.1-0.6c-0.4,0.1-0.7,0.3-1.1,0.4
	C325.1,205.6,325.1,205.7,325.1,205.8z M355.3,204.8c0.4-0.2,0.8-0.4,1.1-0.6c0.5-0.3,1.1-0.5,0.4-1.2c0.2,0,0.4-0.1,0.6-0.1
	c0,0.3,0.1,0.5,0.1,0.7c0.1,0,0.1,0.1,0.2,0.1c0.1-0.2,0.3-0.5,0.3-0.7c0-0.4-0.2-0.8-0.2-1.1c0-0.4-0.2-0.6-0.5-0.6
	c-0.2,0-0.5,0.1-0.8,0.3c0,0-0.1-0.1-0.2-0.2c-0.7,0.3-1.2,0.6-1.9,0.8c-0.1,0-0.3-0.2-0.4-0.2c-0.2,0.2-0.3,0.3-0.4,0.5
	c-0.3,0.4-0.9,0.6-0.9,1.3c0,0-0.1,0-0.2,0.1c0-0.2,0-0.3,0-0.5c-0.2,0.1-0.5,0.2-0.4,0.3c0.1,0.5-0.2,0.7-0.5,0.9
	c-0.1,0.1-0.1,0.4-0.2,0.7c0,0.1-0.1,0.3-0.1,0.3c-0.1,0-0.3,0-0.4-0.1c-0.1,0-0.1-0.1-0.2-0.2c-0.1,0.4-0.3,0.7-0.5,1.2
	c-0.2-0.3-0.2-0.4-0.3-0.5c-0.1,0.3-0.2,0.5-0.3,0.7c0.1,0.2,0.2,0.4,0.2,0.5c-0.1,0.4,0.2,0.5,0.4,0.6c0.1,0,0.3-0.1,0.5-0.2
	c0.1,0,0.1-0.1,0.1-0.1c0.5-0.2,0.9-0.3,1.4-0.5c0.4-0.2,0.8-0.5,1.3-0.6c0.5-0.1,0.7-0.4,0.8-0.8c0-0.1,0.2-0.2,0.3-0.4
	c0.2,0.2,0.3,0.4,0.5,0.7C355.1,205.2,355.2,205,355.3,204.8z"/>
<path class="st0" d="M344.9,178.1c0.2-0.5,0.5-0.9-0.1-1.3c-0.1,0-0.1-0.2,0-0.3c0-0.1,0.2,0,0.4-0.1c-0.2-0.2-0.3-0.5-0.5-0.6
	c-0.4-0.2-0.3-0.5-0.1-0.6c0.6-0.3,0.4-0.8,0.4-1.3c0-0.3-0.1-0.5-0.2-0.8c0.1-0.2,0.2-0.4,0.4-0.6c-0.5-0.2-0.6-0.5-0.3-0.9
	c0.1-0.1,0.2-0.3,0.2-0.4c0-0.4,0-0.9,0-1.4c0-0.1,0.2-0.3,0.2-0.3c0.2,0.1,0.3,0.2,0.5,0.3c0.1-0.2,0.2-0.4,0.4-0.6
	c0.1,0.2,0.3,0.5,0.5,0.6c0.5,0.4,0.5,0.4,0.2,0.9c0,0,0,0.1,0,0.1c0.5,0.3,0.3,1.1,0.9,1.2c0.1,0,0.2,0.2,0.1,0.3
	c-0.3,0.7,0,1.2,0.6,1.7c0.2-0.3,0.4-0.5,0.6-0.8c0.1-0.1,0-0.4-0.1-0.5c-0.1-0.2-0.1-0.4,0-0.5c0-0.4,0-0.7,0-1.1
	c-0.5-0.1-0.6-0.4-0.1-1c0.2-0.3,0.4-0.6,0.6-0.9c0,0-0.1-0.1-0.1-0.1c0.1,0,0.3-0.1,0.4-0.1c0.4,0.3,0.7,4,0.4,4.9
	c0.1,0.3,0.3,0.6,0.4,0.8c-0.1,0-0.2,0-0.2,0c-0.1,0.6-0.2,1.3-0.2,2c0,0.3,0.1,0.7,0.1,1c0,0.6-0.2,0.8-0.8,0.7c-0.2,0-0.3,0-0.5,0
	c-0.3-0.6-0.7-1.2-1-1.8c-0.1-0.1,0.1-0.3,0-0.4c-0.1-0.1-0.2-0.3-0.3-0.4c-0.1-0.2-0.2-0.4-0.2-0.6c0.1-0.4-0.1-0.5-0.4-0.4
	c-0.6,0.2-0.5-0.2-0.5-0.6c0.4,0,0.6-0.2,0.3-0.6c-1,0.6-0.3,1.5-0.5,2.3c0,0,0.1,0.1,0.2,0.2c0.3,0.2,0.5,0.4,0.2,0.8
	c-0.2,0.2-0.3,0.5-0.4,0.8c-0.3,0.7-0.5,0.7-1,0.2C345,178.2,345,178.2,344.9,178.1z"/>
<path class="st0" d="M289.4,169.1c0.2,0.1,0.4,0.2,0.5,0.2c0.4,0,0.9,0,1.3,0c0.4,0,0.8,0,0.9,0.4c0.3,0.6,0.4-0.1,0.7,0
	c0.6,1,0.8,2.2,0.4,3.4c-0.1,0.2-0.3,0.4-0.4,0.6c0,0,0.1,0.1,0.1,0.1c-0.2,0-0.3,0.1-0.6,0.2c0.4,0.9,0.7,1.7,1,2.5
	c0.4,0,0.6,0,1,0c-0.1,0.3-0.2,0.5-0.3,0.7c0.2,0.1,0.4,0.2,0.5,0.4c0.2,0.5-0.3,0.7-0.6,0.7c-0.5,0-1.1,0.3-1.3-0.5
	c0-0.1-0.2-0.3-0.3-0.2c-0.6,0.2-0.4-0.2-0.5-0.5c-0.1-0.3-0.4-0.5-0.6-0.7c0.1-0.1,0.2-0.2,0.3-0.3c-0.4-0.4-0.7-0.8-1-1.3
	c0,0-0.1,0.1-0.1,0.1c0.1,0.3,0.3,0.5,0.3,0.8c0,0.2-0.2,0.4-0.3,0.6c-0.1,0.5,0,0.9-0.1,1.4c0,0.2-0.2,0.6-0.3,0.6
	c-0.3,0-0.6-0.1-0.9-0.2c0,0,0,0,0,0c-0.4-0.5-0.4-0.5-0.2-1.1c0.1-0.3,0-0.7,0-1c0-0.5-0.3-0.9,0-1.4c-0.6-0.3-0.2-0.6-0.1-1
	c0.1-0.7,0-1.5,0-2.2c0-0.1,0-0.2-0.1-0.2c-0.3-0.2-0.3-0.4-0.1-0.7C289,169.9,289.1,169.5,289.4,169.1z M290.4,170.6
	c0,1,0,1.8,0,2.5c0.3,0,0.5,0.1,0.7,0.1c0.3-0.2,0.5-0.5,0.7-0.7c0.4-0.2,0.3-0.6,0.2-0.8c-0.1-0.2-0.4-0.3-0.7-0.3
	c-0.2-0.1-0.4,0-0.5,0C290.7,171.1,290.6,170.9,290.4,170.6z"/>
<path class="st0" d="M295.9,170.5c0.4-0.4,1.1-0.9,0.9-1.9c0.4,0.4,0.7,0.7,1,0.9c0.3-0.3-0.3-0.8,0.3-1c0,0.1,0.1,0.1,0.1,0.1
	c0,0.3-0.1,0.6,0,0.8c0.2,0.2,0.5,0.1,0.8-0.1c0.1-0.1,0.4,0.1,0.5,0.3c0.3,0,0.6-0.1,0.8,0c0.1,0,0.3,0.3,0.3,0.5
	c0,0.2-0.1,0.5-0.3,0.6c-0.3,0.2-0.8,0.2-1.1,0.3c-0.3,0-0.7,0-1,0.1c-0.3,0.1-0.5,0.4-0.3,0.7c0.2,0.3,0.4,0.5-0.1,0.8
	c0,0,0.1,0.2,0.1,0.3c0.2-0.1,0.4-0.2,0.7-0.3c0,0.2,0,0.3,0,0.5c0.3-0.2,0.5-0.3,0.7-0.5c0.1,0.2,0.1,0.4,0.2,0.6
	c0.7-0.1,0.8,0.1,0.6,0.8c-0.1,0.3,0,0.6-0.1,1c-0.1,0-0.3,0-0.5,0.1c0.1-0.3,0.2-0.5,0.2-0.6c-0.6,0.1-1.3,0.1-2.1,0.2
	c0.9,0.6,0.4,1.3,0.4,1.9c0.1-0.1,0.2-0.3,0.3-0.5c0.1,0.2,0.2,0.3,0.2,0.4c-0.1,0.6,0.4,0.6,0.7,0.5c0.4,0,0.7-0.2,1-0.2
	c0.2,0,0.3-0.1,0.5-0.1c0,0.1-0.1,0.3,0,0.4c0,0.1,0.1,0.3,0.2,0.4c0.1,0.1,0.3,0.2,0.5,0.4c-0.5,0.5-0.9,0.8-1.6,0.7
	c-0.2,0-0.4,0.1-0.7,0.1c-0.2,0-0.3,0-0.5,0c0-0.1-0.1-0.1-0.1-0.2c-0.1,0.2-0.2,0.5-0.3,0.6c-0.5-0.2-1-0.4-1.4-0.7
	c-0.2-0.1-0.2-0.5-0.3-0.9c0,0-0.3-0.2-0.3-0.3c0-0.3,0.2-0.5,0.3-0.7c0-0.3,0-0.6,0-0.8c-0.1-0.5-0.2-1-0.4-1.5
	c-0.1-0.4,0.1-0.7,0.2-1.1c0.1-0.3,0.5-0.7,0.1-1.1c-0.1-0.1,0-0.3,0-0.4C296.3,171.1,296.1,170.9,295.9,170.5z"/>
<path class="st0" d="M317.7,174c0-0.2-0.1-0.4-0.1-0.8c0.4-0.3,0.6-0.9,0.7-1.5c0-0.2-0.2-0.5-0.4-0.8c0.2,0,0.5,0,0.7-0.2
	c0.2-0.1,0.2-0.4,0.3-0.6c-0.2-0.1-0.3-0.1-0.4-0.2c0.1-0.2,0.3-0.4,0.4-0.6c0.5,0.5,0.6,0.5,0.9,0c0.2,0.2,0.4,0.4,0.5,0.6
	c0.1,0.3,0.2,0.6,0.2,0.8c0.2,0.5,0.3,0.8,0.4,1.2c0.1,0.2,0.2,0.4,0.3,0.6c-0.3,0.2-0.5,0.4,0,0.6c0.4,0.1,0.4,0.4,0.4,0.7
	c0,0.4-0.2,0.9,0.3,1.2c0.1,0.1,0.1,0.4,0.1,0.6c0,0.2-0.1,0.3,0,0.5c0-0.1,0.1-0.2,0.1-0.3c0.2,0.4,0.4,0.9,0.5,1.3
	c0,0.2-0.1,0.5-0.2,0.8c0,0.1-0.2,0.2-0.5,0.3c0,0.1-0.1,0.3-0.2,0.7c-0.3-0.6-0.6-1-0.8-1.5c-0.2-0.4-0.2-0.8-0.4-1.2
	c0-0.1-0.2-0.2-0.3-0.2c-0.3,0-0.6,0-1-0.1c0,0.1,0,0.3-0.1,0.6c-0.3,0-0.5-0.1-0.8-0.1c-0.2,0.7-0.5,1.4-0.8,2.2
	c-0.5,0-1-0.1-1.6-0.1c0.1-0.1,0.2-0.3,0.4-0.5c0.1-0.2,0.4-0.6,0.4-0.7c-0.3-0.4,0.1-0.6,0.2-0.7c0.4-0.2,0.3-0.5,0.3-0.8
	c0-0.2,0-0.4,0-0.6c0-0.1,0-0.2,0-0.3c-0.3-0.2-0.1-0.4,0-0.5C317.3,174.1,317.5,174.1,317.7,174z M319.2,173.2
	c0.2,0.2,0.3,0.5,0.5,0.7c0.1,0.2,0.3,0.4,0.4,0.7c0,0,0.1-0.1,0.1-0.1c-0.2-0.5-0.3-0.9-0.5-1.4
	C319.6,173.2,319.4,173.2,319.2,173.2z"/>
<path class="st0" d="M331.4,176.9c0,0-0.2-0.2-0.2-0.3c0-1,0.1-1.9,0.1-2.9c-0.2,0-0.3-0.1-0.5-0.1c0,0,0-0.1,0-0.1
	c0.6-0.4,0.4-1.1,0.5-1.6c0.1-0.4-0.1-0.9-0.1-1.4c0-0.6,0.4-0.9,0.9-0.7c0.3,0.1,0.6,0.3,0.9,0c0,0,0.1-0.1,0.2-0.1
	c0.9,0.3,1.8,0.4,2.6,1c0.1,0.1,0.1,0.2,0.1,0.3c-0.5,0.9-0.2,1.9-0.4,2.8c-0.3,0-0.5,0-0.9-0.1c0.1,0.5-0.4,1.1,0.3,1.4
	c-0.1,0.6,0.7,0.7,0.7,1.4c0,0.3,0.4,0.7,0.7,1.1c0.1,0.2,0.3,0.5,0.3,0.6c-0.1,0.2-0.4,0.3-0.7,0.4c-0.4,0-0.7-0.1-1-0.1
	c-0.1-0.5-0.2-0.9-0.4-1.3c-0.1-0.1-0.2-0.2-0.4-0.4c-0.2-0.5-0.4-1-0.7-1.6c-0.1-0.3-0.5-0.4-0.6,0c-0.1,0.3-0.7,0.6-0.1,1
	c0.1,0,0,0.3,0,0.4c-0.5,0.3-0.2,0.8-0.3,1.2c0,0.2,0.2,0.6-0.2,0.6c-0.3,0-0.7-0.2-0.8-0.4C331.3,177.7,331.4,177.3,331.4,176.9z
	 M332.6,173.7c0.5,0.2,1,0,1.4-0.5c0.4-0.4,0.6-0.9,0.5-1.5c0-0.1-0.2-0.2-0.3-0.3c-0.4-0.1-1,0.2-1-0.5c-0.2,0.1-0.3,0.2-0.4,0.2
	C332.7,172.1,332.7,172.8,332.6,173.7z"/>
<path class="st0" d="M342.2,178.9c-0.1-0.7-0.1-1.3-0.3-1.9c-0.1-0.3-0.5-0.7-0.8-0.9c-0.6-0.4-1.2-0.1-1.8,0.3
	c-0.2,0.1-0.3,0.4-0.2,0.7c0.1,0.2,0.1,0.4,0,0.5c-0.3,0.4-0.6,0.7-0.9,1.1c-0.5-0.2-0.8-0.7-0.6-1.3c0-0.1-0.1-0.3-0.1-0.5
	c0-0.3,0-0.6,0-0.9c0.3,0.1,0.4,0.1,0.7,0.2c-0.1-0.4-0.2-0.7-0.4-1.1c0.9-0.2,0.7-1.1,1.1-1.7c-0.3,0-0.5-0.1-0.7-0.1
	c0-0.2,0-0.3,0-0.5c0.3,0,0.7,0,1,0c0-0.4-0.1-0.9,0-1.2c0.2-0.6,0.6-1.1,0.9-1.6c0.2-0.3,0.5-0.2,0.7-0.1c0.1,0.1,0.3,0.1,0.5,0.2
	c0,0.2,0,0.5,0,0.8c0,0,0.1,0,0.2,0c0,0.5,0.8,0.9,0.4,1.5c0,0,0,0.1,0,0.1c0.4,0.3,0.3,0.9,0.6,1.3c0.3,0.4,0.3,0.6-0.2,0.9
	c1,0,0.2,1.2,1.2,1.3c-0.2,0.2-0.3,0.3-0.4,0.4c0,0-0.1,0.1-0.1,0.2c0,0.1,0.1,0.2,0.1,0.2c0.4,0,0.6,0.2,0.4,0.6
	c0,0.1,0.1,0.3,0.1,0.4c0.2,0.8,0.1,0.8-0.6,1C342.7,178.7,342.5,178.8,342.2,178.9z M340,174.4c0.3,0.1,0.6,0.2,0.9,0.4
	c-0.2-0.6-0.4-1.1-0.6-1.6c0,0-0.1,0-0.1,0.1C340.2,173.6,340.1,174,340,174.4z"/>
<path class="st0" d="M303.1,178c0.1-0.2,0.3-0.6-0.3-0.7c-0.2,0-0.2-0.4,0.1-0.5c0.4-0.1,0.7-0.3,1.1-0.5c0.1,1.2,1.1,0.3,1.7,0.9
	c0.2-0.7,0.3-1.3,0.5-1.9c-0.9,0.2-0.9,0.1-1.1-0.7c-0.1-0.3-0.6-0.6-0.9-0.8c-0.2-0.2-0.3-0.4-0.5-0.7c-0.1-0.1-0.3-0.2-0.3-0.4
	c-0.1-0.7-0.2-1.4-0.3-2c0-0.1,0.2-0.3,0.3-0.4c0.2-0.4,1.1-0.9,1.5-1c0.7-0.2,1.3,0.2,1.9,0.2c0.4,0,0.5,0.2,0.6,0.4
	c0.2,0.3-0.1,0.5-0.3,0.8c-0.1,0.1-0.2,0.4-0.3,0.5c-0.1,0.1-0.2,0.3-0.3,0.5c0-0.4-0.1-0.5-0.1-0.9c-0.5,0.1-1,0.1-1.5,0.2
	c-0.1,0-0.3,0.4-0.2,0.5c0.3,0.4,0.6,0.8,0.9,1.2c0.1-0.1,0.3-0.1,0.4-0.2c0,0.1,0.1,0.2,0.1,0.3c-0.3,0.6,0.4,0.6,0.6,0.9
	c0.2,0.2,0.6,0.3,1.1,0.4c-0.2,0.3-0.4,0.5-0.5,0.7c0.1,0.1,0.2,0.2,0.3,0.2c0.5,0.2,0.5,0.4,0.1,0.8c-0.1,0.1-0.2,0.2-0.2,0.4
	c0,0.2-0.1,0.5,0,0.7c0,0.2,0.1,0.5,0.2,0.8c-0.3,0-0.5,0-0.8,0c0,0.3-0.1,0.6-0.7,0.5c-0.1,0-0.4,0.2-0.6,0.4
	c-0.3-0.1-0.6-0.3-0.9,0.1c0,0-0.2,0-0.3,0C303.9,178.5,303.5,178.3,303.1,178z"/>
<path class="st0" d="M314.1,171.6c-0.2-0.2-0.4-0.4-0.8-0.7c0,0.5-0.2,1,0,1.3c0.3,0.6-0.1,1-0.2,1.4c0,0.1-0.1,0.2-0.1,0.3
	c0,1,0,1.9,0,2.9c0,0.3,0.1,0.7,0.1,1c0,0.1,0,0.3,0,0.3c-0.4,0.2-0.8,0.4-1.1,0.6c0,0-0.2-0.1-0.2-0.1c0-0.4-0.1-0.7-0.4-0.9
	c0,0,0-0.2,0-0.3c0.8-0.8,0.3-1.9,0.4-2.8c0-0.2-0.5-0.6-0.1-0.9c-0.2-0.1-0.4-0.3-0.5-0.4c0.1-0.2,0.2-0.4,0.4-0.5
	c0.5-0.3,0.2-0.7,0.2-1.1c0-0.3-0.3-0.5-0.5-0.9c-0.4,0.4-0.5,1-1,0.3c-0.1-0.2-0.5-0.2-0.7-0.3c-0.2-0.1-0.4-0.1-0.4-0.2
	c0-0.3,0-0.7,0.1-0.9c0.2-0.3,0.6-0.5,0.8-0.8c0.1,0.2,0.2,0.4,0.3,0.5c0.2,0,0.4,0,0.6,0c0.4,0.1,0.8,0.2,1.2-0.2
	c0,0,0.1-0.1,0.2,0c0.5,0.5,0.6-0.1,0.9-0.4c0.2,0.2,0.4,0.5,0.6,0.7c0.5,0,1.1-0.1,1.7-0.1c0,0.3,0,0.7,0,1c0,0.2-0.2,0.3-0.4,0.5
	c-0.2,0.2-0.3,0.2-0.5,0c-0.2-0.2-0.6,0-0.5,0.5C314.2,171.5,314.1,171.5,314.1,171.6z"/>
<path class="st0" d="M324,174.3c0-0.8,0-1.6,0-2.4c0-0.1,0-0.1-0.1-0.2c-0.5-0.5-0.5-0.5,0.2-0.8c-0.1-0.6-0.1-1.1,0.6-1.2
	c0.6,1.1,0.4,2.3,0.4,3.4c0,0.7,0.1,1.4,0.1,2.1c0,0.1,0,0.2,0,0.4c0,0,0,0,0,0c-0.1,0.2,0.4,1.4,0.6,1.5c0.5,0.1,1.1,0.5,1.6,0
	c0-0.3,0.1-0.6,0.1-0.9c0,0,0,0,0,0c0-0.2-0.1-0.5,0-0.7c0.1-0.6,0.3-1.1,0.3-1.7c0-0.6,0-1.2,0-1.8c0-0.6,0-1.2,0-1.9
	c0.2-0.1,0.4-0.1,0.7-0.2c-0.3,0.6,0.8,1,0.1,1.6c0.2,0.3,0.2,0.3-0.1,1.2c0.2,0.1,0.4,0.3,0.5,0.4c-0.1,0.2-0.3,0.3-0.4,0.5
	c-0.1,0.1-0.1,0.4,0,0.5c0.4,0.3,0.2,0.6,0,0.7c-0.3,0.2-0.2,0.4,0,0.6c0.1,0.1,0.1,0.3,0.2,0.5c-0.1,0-0.2,0.1-0.3,0.1
	c0,0.9,0.1,1.7-0.7,2.4c-0.9,0.7-1.8,0.3-2.6,0.3c-0.2-0.2-0.4-0.3-0.5-0.5c-0.2-0.2-0.5-0.4-0.3-0.8c0.1-0.3-0.1-0.7-0.3-0.9
	c-0.3-0.4-0.5-0.8,0.1-1.2c0.1,0,0-0.2,0.1-0.3c-0.2,0-0.4,0-0.6,0.1C323.3,174.3,323.7,174.3,324,174.3z"/>
<path class="st0" d="M352.2,171c0.1-0.4,0.2-0.8,0.4-1.2c0-0.1,0.3-0.2,0.4-0.1c0.4,0.1,0.7,0.5,1.2,0.2c0,0,0.2,0.1,0.3,0.2
	c0.2-0.4,0.5-0.5,1.1-0.2c0.1-0.1,0.1-0.2,0.2-0.3c0.1-0.1,0.1-0.2,0.2-0.3c0.2,0.3,0.3,0.6,0.4,0.8c0.1,0,0.1,0,0.1,0
	c0.4-0.2,0.9-0.2,1.1,0.2c0.2,0.4-0.1,0.8-0.5,1c-0.1,0.1-0.1,0.3-0.2,0.4c-0.3-0.1-0.5-0.2-0.7-0.2c-0.3,0.5-0.5,1-0.7,1.5
	c-0.1,0.2,0,0.4,0,0.6c0,1.1,0,2.2,0,3.4c0,0.2,0,0.4,0.1,0.6c0.1,0.8-0.3,1.4-1,1.5c-0.2-0.6-0.5-1.3-0.6-2c0-0.2,0.3-0.5,0.5-0.9
	c-0.2-0.6-0.7-1.3,0-2.1c-0.7-0.4-0.6-0.4-0.1-0.9c0.1-0.1-0.1-0.4-0.2-0.6c-0.4-0.4,0.7-0.7,0-1.1c-0.1-0.1-0.4,0.1-0.7,0.1
	C353.1,171.5,352.7,171.3,352.2,171z"/>
</svg>
